<svg width="89" height="89" viewBox="0 0 89 89" fill="none" xmlns="http://www.w3.org/2000/svg">
<path d="M54.782 10.5062H54.4475V10.2705C54.5387 10.2705 54.6118 10.2625 54.667 10.2464C54.7224 10.2303 54.7665 10.2037 54.7994 10.1664C54.8325 10.1291 54.8614 10.0753 54.8867 10.0047H55.1019V12.1193H54.782V10.5062ZM56.8697 12.1493C56.7126 12.1493 56.5925 12.1031 56.5092 12.0104C56.4257 11.9178 56.384 11.7871 56.384 11.6177V10.5062C56.384 10.337 56.4257 10.2061 56.5092 10.1135C56.5925 10.0209 56.7126 9.97461 56.8697 9.97461C57.0267 9.97461 57.147 10.0209 57.2303 10.1135C57.3137 10.2061 57.3554 10.337 57.3554 10.5062V11.6177C57.3554 11.7871 57.3137 11.9178 57.2303 12.0104C57.147 12.1031 57.0267 12.1493 56.8697 12.1493ZM56.8697 11.8472C56.9802 11.8472 57.0354 11.7778 57.0354 11.6391V10.485C57.0354 10.3461 56.9802 10.2767 56.8697 10.2767C56.7591 10.2767 56.7039 10.3461 56.7039 10.485V11.6391C56.7039 11.7778 56.7591 11.8472 56.8697 11.8472ZM58.9314 10.5062H58.5968V10.2705C58.688 10.2705 58.7612 10.2625 58.8164 10.2464C58.8718 10.2303 58.9158 10.2037 58.9487 10.1664C58.9818 10.1291 59.0108 10.0753 59.0361 10.0047H59.2512V12.1193H58.9314V10.5062ZM61.0045 10.5062H60.67V10.2705C60.7611 10.2705 60.8344 10.2625 60.8896 10.2464C60.9449 10.2303 60.9888 10.2037 61.0219 10.1664C61.0548 10.1291 61.0839 10.0753 61.1091 10.0047H61.3243V12.1193H61.0045V10.5062ZM63.0774 10.5062H62.7431V10.2705C62.8343 10.2705 62.9073 10.2625 62.9626 10.2464C63.018 10.2303 63.0621 10.2037 63.0949 10.1664C63.128 10.1291 63.157 10.0753 63.1822 10.0047H63.3974V12.1193H63.0774V10.5062Z" fill="black"/>
<path d="M52.7089 13.5269H52.3745V13.2911C52.4656 13.2911 52.5387 13.2831 52.5941 13.2669C52.6494 13.2509 52.6935 13.2242 52.7264 13.1869C52.7594 13.1496 52.7884 13.0959 52.8137 13.0252H53.0289V15.1398H52.7089V13.5269ZM54.7966 15.17C54.6394 15.17 54.5194 15.1237 54.436 15.031C54.3526 14.9385 54.3109 14.8076 54.3109 14.6385V13.5269C54.3109 13.3575 54.3526 13.2268 54.436 13.134C54.5194 13.0414 54.6394 12.9951 54.7966 12.9951C54.9536 12.9951 55.0738 13.0414 55.1572 13.134C55.2405 13.2268 55.2822 13.3575 55.2822 13.5269V14.6385C55.2822 14.8076 55.2405 14.9385 55.1572 15.031C55.0738 15.1237 54.9536 15.17 54.7966 15.17ZM54.7966 14.8679C54.9071 14.8679 54.9623 14.7985 54.9623 14.6595V13.5055C54.9623 13.3668 54.9071 13.2972 54.7966 13.2972C54.686 13.2972 54.6308 13.3668 54.6308 13.5055V14.6595C54.6308 14.7985 54.686 14.8679 54.7966 14.8679ZM56.8552 13.5269H56.5207V13.2911C56.6118 13.2911 56.6851 13.2831 56.7403 13.2669C56.7957 13.2509 56.8397 13.2242 56.8726 13.1869C56.9057 13.1496 56.9347 13.0959 56.96 13.0252H57.1751V15.1398H56.8552V13.5269ZM58.9315 13.5269H58.5969V13.2911C58.688 13.2911 58.7613 13.2831 58.8165 13.2669C58.8718 13.2509 58.9158 13.2242 58.9488 13.1869C58.9818 13.1496 59.0108 13.0959 59.0361 13.0252H59.2513V15.1398H58.9315V13.5269ZM61.019 15.17C60.8621 15.17 60.7418 15.1237 60.6584 15.031C60.575 14.9385 60.5334 14.8076 60.5334 14.6385V13.5269C60.5334 13.3575 60.575 13.2268 60.6584 13.134C60.7418 13.0414 60.8621 12.9951 61.019 12.9951C61.1761 12.9951 61.2964 13.0414 61.3797 13.134C61.4629 13.2268 61.5047 13.3575 61.5047 13.5269V14.6385C61.5047 14.8076 61.4629 14.9385 61.3797 15.031C61.2964 15.1237 61.1761 15.17 61.019 15.17ZM61.019 14.8679C61.1295 14.8679 61.1848 14.7985 61.1848 14.6595V13.5055C61.1848 13.3668 61.1295 13.2972 61.019 13.2972C60.9085 13.2972 60.8533 13.3668 60.8533 13.5055V14.6595C60.8533 14.7985 60.9085 14.8679 61.019 14.8679ZM63.0775 13.5269H62.7432V13.2911C62.8343 13.2911 62.9074 13.2831 62.9627 13.2669C63.018 13.2509 63.0621 13.2242 63.095 13.1869C63.128 13.1496 63.157 13.0959 63.1822 13.0252H63.3975V15.1398H63.0775V13.5269Z" fill="black"/>
<path d="M50.6358 16.5474H50.3014V16.3116C50.3925 16.3116 50.4657 16.3036 50.5209 16.2874C50.5761 16.2712 50.6204 16.2447 50.6532 16.2076C50.6861 16.1703 50.7153 16.1164 50.7404 16.046H50.9557V18.1603H50.6358V16.5474ZM52.7235 18.1905C52.5663 18.1905 52.4461 18.1442 52.3628 18.0515C52.2794 17.959 52.2377 17.828 52.2377 17.6589V16.5474C52.2377 16.3781 52.2794 16.2473 52.3628 16.1545C52.4461 16.0619 52.5663 16.0156 52.7235 16.0156C52.8805 16.0156 53.0007 16.0619 53.0841 16.1545C53.1674 16.2473 53.209 16.3781 53.209 16.5474V17.6589C53.209 17.828 53.1674 17.959 53.0841 18.0515C53.0007 18.1442 52.8805 18.1905 52.7235 18.1905ZM52.7235 17.8885C52.834 17.8885 52.8892 17.819 52.8892 17.68V16.5262C52.8892 16.3873 52.834 16.3178 52.7235 16.3178C52.6129 16.3178 52.5576 16.3873 52.5576 16.5262V17.68C52.5576 17.819 52.6129 17.8885 52.7235 17.8885ZM54.782 16.5474H54.4475V16.3116C54.5387 16.3116 54.6118 16.3036 54.667 16.2874C54.7223 16.2712 54.7665 16.2447 54.7994 16.2076C54.8325 16.1703 54.8614 16.1164 54.8866 16.046H55.1019V18.1603H54.782V16.5474ZM56.8552 16.5474H56.5206V16.3116C56.6117 16.3116 56.685 16.3036 56.7403 16.2874C56.7956 16.2712 56.8396 16.2447 56.8726 16.2076C56.9056 16.1703 56.9346 16.1164 56.9599 16.046H57.1751V18.1603H56.8552V16.5474ZM58.9459 18.1905C58.7888 18.1905 58.6686 18.1442 58.5853 18.0515C58.5018 17.959 58.4602 17.828 58.4602 17.6589V16.5474C58.4602 16.3781 58.5018 16.2473 58.5853 16.1545C58.6686 16.0619 58.7888 16.0156 58.9459 16.0156C59.1029 16.0156 59.2231 16.0619 59.3064 16.1545C59.3898 16.2473 59.4316 16.3781 59.4316 16.5474V17.6589C59.4316 17.828 59.3898 17.959 59.3064 18.0515C59.2231 18.1442 59.1029 18.1905 58.9459 18.1905ZM58.9459 17.8885C59.0563 17.8885 59.1116 17.819 59.1116 17.68V16.5262C59.1116 16.3873 59.0563 16.3178 58.9459 16.3178C58.8354 16.3178 58.7802 16.3873 58.7802 16.5262V17.68C58.7802 17.819 58.8354 17.8885 58.9459 17.8885ZM61.0045 16.5474H60.6699V16.3116C60.7611 16.3116 60.8344 16.3036 60.8896 16.2874C60.9449 16.2712 60.9888 16.2447 61.0219 16.2076C61.0548 16.1703 61.0839 16.1164 61.1091 16.046H61.3243V18.1603H61.0045V16.5474ZM63.0774 16.5474H62.7431V16.3116C62.8343 16.3116 62.9073 16.3036 62.9626 16.2874C63.0179 16.2712 63.0621 16.2447 63.0949 16.2076C63.128 16.1703 63.157 16.1164 63.1821 16.046H63.3974V18.1603H63.0774V16.5474Z" fill="black"/>
<path d="M50.6358 19.5679H50.3014V19.3321C50.3925 19.3321 50.4657 19.3241 50.5209 19.3082C50.5761 19.292 50.6204 19.2652 50.6532 19.2279C50.6861 19.1907 50.7153 19.1369 50.7404 19.0665H50.9557V21.1808H50.6358V19.5679ZM52.7235 21.211C52.5663 21.211 52.4461 21.1646 52.3628 21.072C52.2794 20.9795 52.2377 20.8485 52.2377 20.6794V19.5679C52.2377 19.3988 52.2794 19.2678 52.3628 19.1752C52.4461 19.0827 52.5663 19.0361 52.7235 19.0361C52.8805 19.0361 53.0007 19.0827 53.0841 19.1752C53.1674 19.2678 53.209 19.3988 53.209 19.5679V20.6794C53.209 20.8485 53.1674 20.9795 53.0841 21.072C53.0007 21.1646 52.8805 21.211 52.7235 21.211ZM52.7235 20.909C52.834 20.909 52.8892 20.8395 52.8892 20.7006V19.5468C52.8892 19.4078 52.834 19.3383 52.7235 19.3383C52.6129 19.3383 52.5576 19.4078 52.5576 19.5468V20.7006C52.5576 20.8395 52.6129 20.909 52.7235 20.909ZM54.782 19.5679H54.4475V19.3321C54.5387 19.3321 54.6118 19.3241 54.667 19.3082C54.7223 19.292 54.7665 19.2652 54.7994 19.2279C54.8325 19.1907 54.8614 19.1369 54.8866 19.0665H55.1019V21.1808H54.782V19.5679ZM56.8552 19.5679H56.5206V19.3321C56.6117 19.3321 56.685 19.3241 56.7403 19.3082C56.7956 19.292 56.8396 19.2652 56.8726 19.2279C56.9056 19.1907 56.9346 19.1369 56.9599 19.0665H57.1751V21.1808H56.8552V19.5679ZM58.9314 19.5679H58.5968V19.3321C58.688 19.3321 58.7612 19.3241 58.8164 19.3082C58.8717 19.292 58.9158 19.2652 58.9487 19.2279C58.9818 19.1907 59.0108 19.1369 59.036 19.0665H59.2512V21.1808H58.9314V19.5679ZM61.0045 19.5679H60.6699V19.3321C60.7611 19.3321 60.8344 19.3241 60.8896 19.3082C60.9449 19.292 60.9888 19.2652 61.0219 19.2279C61.0548 19.1907 61.0839 19.1369 61.1091 19.0665H61.3243V21.1808H61.0045V19.5679ZM63.0774 19.5679H62.7431V19.3321C62.8343 19.3321 62.9073 19.3241 62.9626 19.3082C63.0179 19.292 63.0621 19.2652 63.0949 19.2279C63.128 19.1907 63.157 19.1369 63.1821 19.0665H63.3974V21.1808H63.0774V19.5679Z" fill="black"/>
<path d="M50.6358 22.5884H50.3014V22.3529C50.3925 22.3529 50.4657 22.3448 50.5209 22.3286C50.5761 22.3125 50.6204 22.2859 50.6532 22.2484C50.6861 22.2113 50.7153 22.1574 50.7404 22.087H50.9557V24.2013H50.6358V22.5884ZM52.7235 24.2315C52.5663 24.2315 52.4461 24.1851 52.3628 24.0926C52.2794 24 52.2377 23.8691 52.2377 23.6999V22.5884C52.2377 22.4193 52.2794 22.2883 52.3628 22.1957C52.4461 22.103 52.5663 22.0566 52.7235 22.0566C52.8805 22.0566 53.0007 22.103 53.0841 22.1957C53.1674 22.2883 53.209 22.4193 53.209 22.5884V23.6999C53.209 23.8691 53.1674 24 53.0841 24.0926C53.0007 24.1851 52.8805 24.2315 52.7235 24.2315ZM52.7235 23.9295C52.834 23.9295 52.8892 23.86 52.8892 23.7211V22.5673C52.8892 22.4281 52.834 22.3588 52.7235 22.3588C52.6129 22.3588 52.5576 22.4281 52.5576 22.5673V23.7211C52.5576 23.86 52.6129 23.9295 52.7235 23.9295ZM54.782 22.5884H54.4475V22.3529C54.5387 22.3529 54.6118 22.3448 54.667 22.3286C54.7223 22.3125 54.7665 22.2859 54.7994 22.2484C54.8325 22.2113 54.8614 22.1574 54.8866 22.087H55.1019V24.2013H54.782V22.5884ZM56.8552 22.5884H56.5206V22.3529C56.6117 22.3529 56.685 22.3448 56.7403 22.3286C56.7956 22.3125 56.8396 22.2859 56.8726 22.2484C56.9056 22.2113 56.9346 22.1574 56.9599 22.087H57.1751V24.2013H56.8552V22.5884ZM58.9314 22.5884H58.5968V22.3529C58.688 22.3529 58.7612 22.3448 58.8164 22.3286C58.8717 22.3125 58.9158 22.2859 58.9487 22.2484C58.9818 22.2113 59.0108 22.1574 59.036 22.087H59.2512V24.2013H58.9314V22.5884ZM61.0045 22.5884H60.6699V22.3529C60.7611 22.3529 60.8344 22.3448 60.8896 22.3286C60.9449 22.3125 60.9888 22.2859 61.0219 22.2484C61.0548 22.2113 61.0839 22.1574 61.1091 22.087H61.3243V24.2013H61.0045V22.5884ZM63.092 24.2315C62.935 24.2315 62.8148 24.1851 62.7313 24.0926C62.648 24 62.6064 23.8691 62.6064 23.6999V22.5884C62.6064 22.4193 62.648 22.2883 62.7313 22.1957C62.8148 22.103 62.935 22.0566 63.092 22.0566C63.2491 22.0566 63.3693 22.103 63.4526 22.1957C63.536 22.2883 63.5777 22.4193 63.5777 22.5884V23.6999C63.5777 23.8691 63.536 24 63.4526 24.0926C63.3693 24.1851 63.2491 24.2315 63.092 24.2315ZM63.092 23.9295C63.2025 23.9295 63.2579 23.86 63.2579 23.7211V22.5673C63.2579 22.4281 63.2025 22.3588 63.092 22.3588C62.9816 22.3588 62.9263 22.4281 62.9263 22.5673V23.7211C62.9263 23.86 62.9816 23.9295 63.092 23.9295Z" fill="black"/>
<path d="M50.6504 27.2521C50.4934 27.2521 50.3731 27.2058 50.2897 27.1133C50.2063 27.0205 50.1647 26.8896 50.1647 26.7205V25.6089C50.1647 25.4398 50.2063 25.3088 50.2897 25.2162C50.3731 25.1235 50.4934 25.0771 50.6504 25.0771C50.8074 25.0771 50.9276 25.1235 51.0109 25.2162C51.0943 25.3088 51.1361 25.4398 51.1361 25.6089V26.7205C51.1361 26.8896 51.0943 27.0205 51.0109 27.1133C50.9276 27.2058 50.8074 27.2521 50.6504 27.2521ZM50.6504 26.95C50.7609 26.95 50.8161 26.8805 50.8161 26.7416V25.5878C50.8161 25.4488 50.7609 25.3793 50.6504 25.3793C50.5399 25.3793 50.4846 25.4488 50.4846 25.5878V26.7416C50.4846 26.8805 50.5399 26.95 50.6504 26.95ZM52.7089 25.6089H52.3745V25.3733C52.4655 25.3733 52.5387 25.3653 52.5941 25.3492C52.6493 25.333 52.6934 25.3064 52.7264 25.269C52.7593 25.2318 52.7883 25.1779 52.8136 25.1075H53.0289V27.2219H52.7089V25.6089ZM54.7965 27.2521C54.6394 27.2521 54.5193 27.2058 54.4359 27.1133C54.3525 27.0205 54.3109 26.8896 54.3109 26.7205V25.6089C54.3109 25.4398 54.3525 25.3088 54.4359 25.2162C54.5193 25.1235 54.6394 25.0771 54.7965 25.0771C54.9536 25.0771 55.0738 25.1235 55.1571 25.2162C55.2404 25.3088 55.2822 25.4398 55.2822 25.6089V26.7205C55.2822 26.8896 55.2404 27.0205 55.1571 27.1133C55.0738 27.2058 54.9536 27.2521 54.7965 27.2521ZM54.7965 26.95C54.9071 26.95 54.9623 26.8805 54.9623 26.7416V25.5878C54.9623 25.4488 54.9071 25.3793 54.7965 25.3793C54.686 25.3793 54.6308 25.4488 54.6308 25.5878V26.7416C54.6308 26.8805 54.686 26.95 54.7965 26.95ZM56.8697 27.2521C56.7126 27.2521 56.5925 27.2058 56.5092 27.1133C56.4257 27.0205 56.384 26.8896 56.384 26.7205V25.6089C56.384 25.4398 56.4257 25.3088 56.5092 25.2162C56.5925 25.1235 56.7126 25.0771 56.8697 25.0771C57.0267 25.0771 57.147 25.1235 57.2303 25.2162C57.3137 25.3088 57.3554 25.4398 57.3554 25.6089V26.7205C57.3554 26.8896 57.3137 27.0205 57.2303 27.1133C57.147 27.2058 57.0267 27.2521 56.8697 27.2521ZM56.8697 26.95C56.9802 26.95 57.0354 26.8805 57.0354 26.7416V25.5878C57.0354 25.4488 56.9802 25.3793 56.8697 25.3793C56.7591 25.3793 56.7039 25.4488 56.7039 25.5878V26.7416C56.7039 26.8805 56.7591 26.95 56.8697 26.95ZM58.9314 25.6089H58.5968V25.3733C58.688 25.3733 58.7612 25.3653 58.8165 25.3492C58.8718 25.333 58.9158 25.3064 58.9487 25.269C58.9818 25.2318 59.0108 25.1779 59.0361 25.1075H59.2512V27.2219H58.9314V25.6089ZM61.0045 25.6089H60.67V25.3733C60.7611 25.3733 60.8344 25.3653 60.8896 25.3492C60.9449 25.333 60.9888 25.3064 61.0219 25.269C61.0548 25.2318 61.0839 25.1779 61.1091 25.1075H61.3243V27.2219H61.0045V25.6089ZM63.092 27.2521C62.935 27.2521 62.8148 27.2058 62.7313 27.1133C62.648 27.0205 62.6064 26.8896 62.6064 26.7205V25.6089C62.6064 25.4398 62.648 25.3088 62.7313 25.2162C62.8148 25.1235 62.935 25.0771 63.092 25.0771C63.2491 25.0771 63.3694 25.1235 63.4527 25.2162C63.5361 25.3088 63.5777 25.4398 63.5777 25.6089V26.7205C63.5777 26.8896 63.5361 27.0205 63.4527 27.1133C63.3694 27.2058 63.2491 27.2521 63.092 27.2521ZM63.092 26.95C63.2026 26.95 63.2579 26.8805 63.2579 26.7416V25.5878C63.2579 25.4488 63.2026 25.3793 63.092 25.3793C62.9816 25.3793 62.9263 25.4488 62.9263 25.5878V26.7416C62.9263 26.8805 62.9816 26.95 63.092 26.95Z" fill="black"/>
<path d="M50.6358 28.6302H50.3014V28.3946C50.3925 28.3946 50.4657 28.3866 50.5209 28.3706C50.5761 28.3544 50.6204 28.3276 50.6532 28.2904C50.6861 28.2532 50.7153 28.1993 50.7404 28.1288H50.9557V30.2433H50.6358V28.6302ZM52.7235 30.2735C52.5663 30.2735 52.4461 30.2271 52.3628 30.1346C52.2794 30.0418 52.2377 29.911 52.2377 29.7418V28.6302C52.2377 28.4612 52.2794 28.3303 52.3628 28.2375C52.4461 28.1449 52.5663 28.0986 52.7235 28.0986C52.8805 28.0986 53.0007 28.1449 53.0841 28.2375C53.1674 28.3303 53.209 28.4612 53.209 28.6302V29.7418C53.209 29.911 53.1674 30.0418 53.0841 30.1346C53.0007 30.2271 52.8805 30.2735 52.7235 30.2735ZM52.7235 29.9714C52.834 29.9714 52.8892 29.9019 52.8892 29.763V28.6092C52.8892 28.4701 52.834 28.4008 52.7235 28.4008C52.6129 28.4008 52.5576 28.4701 52.5576 28.6092V29.763C52.5576 29.9019 52.6129 29.9714 52.7235 29.9714ZM54.782 28.6302H54.4475V28.3946C54.5387 28.3946 54.6118 28.3866 54.667 28.3706C54.7223 28.3544 54.7665 28.3276 54.7994 28.2904C54.8325 28.2532 54.8614 28.1993 54.8866 28.1288H55.1019V30.2433H54.782V28.6302ZM56.8552 28.6302H56.5206V28.3946C56.6117 28.3946 56.685 28.3866 56.7403 28.3706C56.7956 28.3544 56.8396 28.3276 56.8726 28.2904C56.9056 28.2532 56.9346 28.1993 56.9599 28.1288H57.1751V30.2433H56.8552V28.6302ZM58.9314 28.6302H58.5968V28.3946C58.688 28.3946 58.7612 28.3866 58.8164 28.3706C58.8717 28.3544 58.9158 28.3276 58.9487 28.2904C58.9818 28.2532 59.0108 28.1993 59.036 28.1288H59.2512V30.2433H58.9314V28.6302ZM61.0045 28.6302H60.6699V28.3946C60.7611 28.3946 60.8344 28.3866 60.8896 28.3706C60.9449 28.3544 60.9888 28.3276 61.0219 28.2904C61.0548 28.2532 61.0839 28.1993 61.1091 28.1288H61.3243V30.2433H61.0045V28.6302ZM63.092 30.2735C62.935 30.2735 62.8148 30.2271 62.7313 30.1346C62.648 30.0418 62.6064 29.911 62.6064 29.7418V28.6302C62.6064 28.4612 62.648 28.3303 62.7313 28.2375C62.8148 28.1449 62.935 28.0986 63.092 28.0986C63.2491 28.0986 63.3693 28.1449 63.4526 28.2375C63.536 28.3303 63.5777 28.4612 63.5777 28.6302V29.7418C63.5777 29.911 63.536 30.0418 63.4526 30.1346C63.3693 30.2271 63.2491 30.2735 63.092 30.2735ZM63.092 29.9714C63.2025 29.9714 63.2579 29.9019 63.2579 29.763V28.6092C63.2579 28.4701 63.2025 28.4008 63.092 28.4008C62.9816 28.4008 62.9263 28.4701 62.9263 28.6092V29.763C62.9263 29.9019 62.9816 29.9714 63.092 29.9714Z" fill="black"/>
<path d="M50.6358 31.6506H50.3014V31.415C50.3925 31.415 50.4657 31.407 50.5209 31.3909C50.5761 31.3747 50.6204 31.3481 50.6532 31.3108C50.6861 31.2735 50.7153 31.2197 50.7404 31.1492H50.9557V33.2637H50.6358V31.6506ZM52.7235 33.294C52.5663 33.294 52.4461 33.2476 52.3628 33.1548C52.2794 33.0622 52.2377 32.9313 52.2377 32.7623V31.6506C52.2377 31.4815 52.2794 31.3507 52.3628 31.258C52.4461 31.1654 52.5663 31.1191 52.7235 31.1191C52.8805 31.1191 53.0007 31.1654 53.0841 31.258C53.1674 31.3507 53.209 31.4815 53.209 31.6506V32.7623C53.209 32.9313 53.1674 33.0622 53.0841 33.1548C53.0007 33.2476 52.8805 33.294 52.7235 33.294ZM52.7235 32.9917C52.834 32.9917 52.8892 32.9224 52.8892 32.7833V31.6295C52.8892 31.4905 52.834 31.4211 52.7235 31.4211C52.6129 31.4211 52.5576 31.4905 52.5576 31.6295V32.7833C52.5576 32.9224 52.6129 32.9917 52.7235 32.9917ZM54.782 31.6506H54.4475V31.415C54.5387 31.415 54.6118 31.407 54.667 31.3909C54.7223 31.3747 54.7665 31.3481 54.7994 31.3108C54.8325 31.2735 54.8614 31.2197 54.8866 31.1492H55.1019V33.2637H54.782V31.6506ZM56.8552 31.6506H56.5206V31.415C56.6117 31.415 56.685 31.407 56.7403 31.3909C56.7956 31.3747 56.8396 31.3481 56.8726 31.3108C56.9056 31.2735 56.9346 31.2197 56.9599 31.1492H57.1751V33.2637H56.8552V31.6506ZM58.9459 33.294C58.7888 33.294 58.6686 33.2476 58.5853 33.1548C58.5018 33.0622 58.4602 32.9313 58.4602 32.7623V31.6506C58.4602 31.4815 58.5018 31.3507 58.5853 31.258C58.6686 31.1654 58.7888 31.1191 58.9459 31.1191C59.1029 31.1191 59.2231 31.1654 59.3064 31.258C59.3898 31.3507 59.4316 31.4815 59.4316 31.6506V32.7623C59.4316 32.9313 59.3898 33.0622 59.3064 33.1548C59.2231 33.2476 59.1029 33.294 58.9459 33.294ZM58.9459 32.9917C59.0563 32.9917 59.1116 32.9224 59.1116 32.7833V31.6295C59.1116 31.4905 59.0563 31.4211 58.9459 31.4211C58.8354 31.4211 58.7802 31.4905 58.7802 31.6295V32.7833C58.7802 32.9224 58.8354 32.9917 58.9459 32.9917ZM61.0045 31.6506H60.6699V31.415C60.7611 31.415 60.8344 31.407 60.8896 31.3909C60.9449 31.3747 60.9888 31.3481 61.0219 31.3108C61.0548 31.2735 61.0839 31.2197 61.1091 31.1492H61.3243V33.2637H61.0045V31.6506ZM63.0774 31.6506H62.7431V31.415C62.8343 31.415 62.9073 31.407 62.9626 31.3909C63.0179 31.3747 63.0621 31.3481 63.0949 31.3108C63.128 31.2735 63.157 31.2197 63.1821 31.1492H63.3974V33.2637H63.0774V31.6506Z" fill="black"/>
<path d="M50.6358 34.6711H50.3014V34.4357C50.3925 34.4357 50.4657 34.4275 50.5209 34.4114C50.5761 34.3952 50.6204 34.3687 50.6532 34.3314C50.6861 34.294 50.7153 34.2402 50.7404 34.1697H50.9557V36.284H50.6358V34.6711ZM52.7235 36.3145C52.5663 36.3145 52.4461 36.2681 52.3628 36.1755C52.2794 36.0828 52.2377 35.9518 52.2377 35.7828V34.6711C52.2377 34.502 52.2794 34.371 52.3628 34.2785C52.4461 34.1859 52.5663 34.1396 52.7235 34.1396C52.8805 34.1396 53.0007 34.1859 53.0841 34.2785C53.1674 34.371 53.209 34.502 53.209 34.6711V35.7828C53.209 35.9518 53.1674 36.0828 53.0841 36.1755C53.0007 36.2681 52.8805 36.3145 52.7235 36.3145ZM52.7235 36.0122C52.834 36.0122 52.8892 35.9429 52.8892 35.8038V34.65C52.8892 34.5111 52.834 34.4415 52.7235 34.4415C52.6129 34.4415 52.5576 34.5111 52.5576 34.65V35.8038C52.5576 35.9429 52.6129 36.0122 52.7235 36.0122ZM54.782 34.6711H54.4475V34.4357C54.5387 34.4357 54.6118 34.4275 54.667 34.4114C54.7223 34.3952 54.7665 34.3687 54.7994 34.3314C54.8325 34.294 54.8614 34.2402 54.8866 34.1697H55.1019V36.284H54.782V34.6711ZM56.8552 34.6711H56.5206V34.4357C56.6117 34.4357 56.685 34.4275 56.7403 34.4114C56.7956 34.3952 56.8396 34.3687 56.8726 34.3314C56.9056 34.294 56.9346 34.2402 56.9599 34.1697H57.1751V36.284H56.8552V34.6711ZM58.9314 34.6711H58.5968V34.4357C58.688 34.4357 58.7612 34.4275 58.8164 34.4114C58.8717 34.3952 58.9158 34.3687 58.9487 34.3314C58.9818 34.294 59.0108 34.2402 59.036 34.1697H59.2512V36.284H58.9314V34.6711ZM61.019 36.3145C60.862 36.3145 60.7417 36.2681 60.6583 36.1755C60.575 36.0828 60.5333 35.9518 60.5333 35.7828V34.6711C60.5333 34.502 60.575 34.371 60.6583 34.2785C60.7417 34.1859 60.862 34.1396 61.019 34.1396C61.176 34.1396 61.2963 34.1859 61.3796 34.2785C61.4629 34.371 61.5046 34.502 61.5046 34.6711V35.7828C61.5046 35.9518 61.4629 36.0828 61.3796 36.1755C61.2963 36.2681 61.176 36.3145 61.019 36.3145ZM61.019 36.0122C61.1294 36.0122 61.1847 35.9429 61.1847 35.8038V34.65C61.1847 34.5111 61.1294 34.4415 61.019 34.4415C60.9084 34.4415 60.8532 34.5111 60.8532 34.65V35.8038C60.8532 35.9429 60.9084 36.0122 61.019 36.0122ZM63.0774 34.6711H62.7431V34.4357C62.8343 34.4357 62.9073 34.4275 62.9626 34.4114C63.0179 34.3952 63.0621 34.3687 63.0949 34.3314C63.128 34.294 63.157 34.2402 63.1821 34.1697H63.3974V36.284H63.0774V34.6711Z" fill="black"/>
<path d="M50.6358 37.6918H50.3014V37.4563C50.3925 37.4563 50.4657 37.4483 50.5209 37.4321C50.5761 37.416 50.6204 37.3894 50.6532 37.3521C50.6861 37.3148 50.7153 37.261 50.7404 37.1905H50.9557V39.305H50.6358V37.6918ZM52.7088 37.6918H52.3744V37.4563C52.4655 37.4563 52.5386 37.4483 52.5941 37.4321C52.6493 37.416 52.6934 37.3894 52.7264 37.3521C52.7593 37.3148 52.7883 37.261 52.8136 37.1905H53.0289V39.305H52.7088V37.6918ZM54.7965 39.335C54.6393 39.335 54.5193 39.2888 54.4359 39.1961C54.3525 39.1036 54.3108 38.9726 54.3108 38.8034V37.6918C54.3108 37.5227 54.3525 37.3917 54.4359 37.2992C54.5193 37.2065 54.6393 37.1602 54.7965 37.1602C54.9536 37.1602 55.0737 37.2065 55.1571 37.2992C55.2404 37.3917 55.2822 37.5227 55.2822 37.6918V38.8034C55.2822 38.9726 55.2404 39.1036 55.1571 39.1961C55.0737 39.2888 54.9536 39.335 54.7965 39.335ZM54.7965 39.033C54.907 39.033 54.9623 38.9635 54.9623 38.8246V37.6707C54.9623 37.5317 54.907 37.4624 54.7965 37.4624C54.686 37.4624 54.6308 37.5317 54.6308 37.6707V38.8246C54.6308 38.9635 54.686 39.033 54.7965 39.033ZM56.8552 37.6918H56.5206V37.4563C56.6117 37.4563 56.685 37.4483 56.7403 37.4321C56.7956 37.416 56.8396 37.3894 56.8726 37.3521C56.9056 37.3148 56.9346 37.261 56.9599 37.1905H57.1751V39.305H56.8552V37.6918ZM58.9314 37.6918H58.5968V37.4563C58.688 37.4563 58.7612 37.4483 58.8164 37.4321C58.8717 37.416 58.9158 37.3894 58.9487 37.3521C58.9818 37.3148 59.0108 37.261 59.036 37.1905H59.2512V39.305H58.9314V37.6918ZM61.019 39.335C60.862 39.335 60.7417 39.2888 60.6583 39.1961C60.575 39.1036 60.5333 38.9726 60.5333 38.8034V37.6918C60.5333 37.5227 60.575 37.3917 60.6583 37.2992C60.7417 37.2065 60.862 37.1602 61.019 37.1602C61.176 37.1602 61.2963 37.2065 61.3796 37.2992C61.4629 37.3917 61.5046 37.5227 61.5046 37.6918V38.8034C61.5046 38.9726 61.4629 39.1036 61.3796 39.1961C61.2963 39.2888 61.176 39.335 61.019 39.335ZM61.019 39.033C61.1294 39.033 61.1847 38.9635 61.1847 38.8246V37.6707C61.1847 37.5317 61.1294 37.4624 61.019 37.4624C60.9084 37.4624 60.8532 37.5317 60.8532 37.6707V38.8246C60.8532 38.9635 60.9084 39.033 61.019 39.033ZM63.0774 37.6918H62.7431V37.4563C62.8343 37.4563 62.9073 37.4483 62.9626 37.4321C63.0179 37.416 63.0621 37.3894 63.0949 37.3521C63.128 37.3148 63.157 37.261 63.1821 37.1905H63.3974V39.305H63.0774V37.6918Z" fill="black"/>
<path d="M50.6358 40.7124H50.3014V40.4768C50.3925 40.4768 50.4657 40.4688 50.5209 40.4526C50.5761 40.4364 50.6204 40.4099 50.6532 40.3726C50.6861 40.3355 50.7153 40.2815 50.7404 40.211H50.9557V42.3255H50.6358V40.7124ZM52.7235 42.3555C52.5663 42.3555 52.4461 42.3093 52.3628 42.2166C52.2794 42.124 52.2377 41.9931 52.2377 41.8239V40.7124C52.2377 40.5432 52.2794 40.4123 52.3628 40.3198C52.4461 40.227 52.5663 40.1807 52.7235 40.1807C52.8805 40.1807 53.0007 40.227 53.0841 40.3198C53.1674 40.4123 53.209 40.5432 53.209 40.7124V41.8239C53.209 41.9931 53.1674 42.124 53.0841 42.2166C53.0007 42.3093 52.8805 42.3555 52.7235 42.3555ZM52.7235 42.0535C52.834 42.0535 52.8892 41.984 52.8892 41.8451V40.6912C52.8892 40.5523 52.834 40.4829 52.7235 40.4829C52.6129 40.4829 52.5576 40.5523 52.5576 40.6912V41.8451C52.5576 41.984 52.6129 42.0535 52.7235 42.0535ZM54.782 40.7124H54.4475V40.4768C54.5387 40.4768 54.6118 40.4688 54.667 40.4526C54.7223 40.4364 54.7665 40.4099 54.7994 40.3726C54.8325 40.3355 54.8614 40.2815 54.8866 40.211H55.1019V42.3255H54.782V40.7124ZM56.8697 42.3555C56.7126 42.3555 56.5924 42.3093 56.5091 42.2166C56.4256 42.124 56.384 41.9931 56.384 41.8239V40.7124C56.384 40.5432 56.4256 40.4123 56.5091 40.3198C56.5924 40.227 56.7126 40.1807 56.8697 40.1807C57.0267 40.1807 57.147 40.227 57.2303 40.3198C57.3137 40.4123 57.3554 40.5432 57.3554 40.7124V41.8239C57.3554 41.9931 57.3137 42.124 57.2303 42.2166C57.147 42.3093 57.0267 42.3555 56.8697 42.3555ZM56.8697 42.0535C56.9802 42.0535 57.0354 41.984 57.0354 41.8451V40.6912C57.0354 40.5523 56.9802 40.4829 56.8697 40.4829C56.7591 40.4829 56.7039 40.5523 56.7039 40.6912V41.8451C56.7039 41.984 56.7591 42.0535 56.8697 42.0535ZM58.9314 40.7124H58.5968V40.4768C58.688 40.4768 58.7612 40.4688 58.8164 40.4526C58.8717 40.4364 58.9158 40.4099 58.9487 40.3726C58.9818 40.3355 59.0108 40.2815 59.036 40.211H59.2512V42.3255H58.9314V40.7124ZM61.0045 40.7124H60.6699V40.4768C60.7611 40.4768 60.8344 40.4688 60.8896 40.4526C60.9449 40.4364 60.9888 40.4099 61.0219 40.3726C61.0548 40.3355 61.0839 40.2815 61.1091 40.211H61.3243V42.3255H61.0045V40.7124ZM63.0774 40.7124H62.7431V40.4768C62.8343 40.4768 62.9073 40.4688 62.9626 40.4526C63.0179 40.4364 63.0621 40.4099 63.0949 40.3726C63.128 40.3355 63.157 40.2815 63.1821 40.211H63.3974V42.3255H63.0774V40.7124Z" fill="black"/>
<path d="M50.6358 43.7328H50.3014V43.4972C50.3925 43.4972 50.4657 43.489 50.5209 43.473C50.5761 43.4569 50.6204 43.4302 50.6532 43.393C50.6861 43.3558 50.7153 43.3018 50.7404 43.2312H50.9557V45.3458H50.6358V43.7328ZM52.7088 43.7328H52.3744V43.4972C52.4655 43.4972 52.5386 43.489 52.5941 43.473C52.6493 43.4569 52.6934 43.4302 52.7264 43.393C52.7593 43.3558 52.7883 43.3018 52.8136 43.2312H53.0289V45.3458H52.7088V43.7328ZM54.782 43.7328H54.4475V43.4972C54.5387 43.4972 54.6118 43.489 54.667 43.473C54.7223 43.4569 54.7665 43.4302 54.7994 43.393C54.8325 43.3558 54.8614 43.3018 54.8866 43.2312H55.1019V45.3458H54.782V43.7328ZM56.8552 43.7328H56.5206V43.4972C56.6117 43.4972 56.685 43.489 56.7403 43.473C56.7956 43.4569 56.8396 43.4302 56.8726 43.393C56.9056 43.3558 56.9346 43.3018 56.9599 43.2312H57.1751V45.3458H56.8552V43.7328ZM58.9314 43.7328H58.5968V43.4972C58.688 43.4972 58.7612 43.489 58.8164 43.473C58.8717 43.4569 58.9158 43.4302 58.9487 43.393C58.9818 43.3558 59.0108 43.3018 59.036 43.2312H59.2512V45.3458H58.9314V43.7328ZM61.019 45.376C60.862 45.376 60.7417 45.3298 60.6583 45.237C60.575 45.1444 60.5333 45.0135 60.5333 44.8444V43.7328C60.5333 43.5636 60.575 43.4328 60.6583 43.3402C60.7417 43.2474 60.862 43.2012 61.019 43.2012C61.176 43.2012 61.2963 43.2474 61.3796 43.3402C61.4629 43.4328 61.5046 43.5636 61.5046 43.7328V44.8444C61.5046 45.0135 61.4629 45.1444 61.3796 45.237C61.2963 45.3298 61.176 45.376 61.019 45.376ZM61.019 45.0738C61.1294 45.0738 61.1847 45.0045 61.1847 44.8656V43.7117C61.1847 43.5727 61.1294 43.5033 61.019 43.5033C60.9084 43.5033 60.8532 43.5727 60.8532 43.7117V44.8656C60.8532 45.0045 60.9084 45.0738 61.019 45.0738ZM63.0774 43.7328H62.7431V43.4972C62.8343 43.4972 62.9073 43.489 62.9626 43.473C63.0179 43.4569 63.0621 43.4302 63.0949 43.393C63.128 43.3558 63.157 43.3018 63.1821 43.2312H63.3974V45.3458H63.0774V43.7328Z" fill="black"/>
<path d="M50.6358 46.7533H50.3014V46.5177C50.3925 46.5177 50.4657 46.5095 50.5209 46.4935C50.5761 46.4776 50.6204 46.4508 50.6532 46.4135C50.6861 46.3762 50.7153 46.3223 50.7404 46.2519H50.9557V48.3663H50.6358V46.7533ZM52.7235 48.3965C52.5663 48.3965 52.4461 48.3503 52.3628 48.2575C52.2794 48.165 52.2377 48.0342 52.2377 47.8649V46.7533C52.2377 46.5842 52.2794 46.4533 52.3628 46.3606C52.4461 46.2681 52.5663 46.2217 52.7235 46.2217C52.8805 46.2217 53.0007 46.2681 53.0841 46.3606C53.1674 46.4533 53.209 46.5842 53.209 46.7533V47.8649C53.209 48.0342 53.1674 48.165 53.0841 48.2575C53.0007 48.3503 52.8805 48.3965 52.7235 48.3965ZM52.7235 48.0946C52.834 48.0946 52.8892 48.025 52.8892 47.886V46.7322C52.8892 46.5933 52.834 46.5238 52.7235 46.5238C52.6129 46.5238 52.5576 46.5933 52.5576 46.7322V47.886C52.5576 48.025 52.6129 48.0946 52.7235 48.0946ZM54.782 46.7533H54.4475V46.5177C54.5387 46.5177 54.6118 46.5095 54.667 46.4935C54.7223 46.4776 54.7665 46.4508 54.7994 46.4135C54.8325 46.3762 54.8614 46.3223 54.8866 46.2519H55.1019V48.3663H54.782V46.7533ZM56.8552 46.7533H56.5206V46.5177C56.6117 46.5177 56.685 46.5095 56.7403 46.4935C56.7956 46.4776 56.8396 46.4508 56.8726 46.4135C56.9056 46.3762 56.9346 46.3223 56.9599 46.2519H57.1751V48.3663H56.8552V46.7533ZM58.9314 46.7533H58.5968V46.5177C58.688 46.5177 58.7612 46.5095 58.8164 46.4935C58.8717 46.4776 58.9158 46.4508 58.9487 46.4135C58.9818 46.3762 59.0108 46.3223 59.036 46.2519H59.2512V48.3663H58.9314V46.7533ZM61.0045 46.7533H60.6699V46.5177C60.7611 46.5177 60.8344 46.5095 60.8896 46.4935C60.9449 46.4776 60.9888 46.4508 61.0219 46.4135C61.0548 46.3762 61.0839 46.3223 61.1091 46.2519H61.3243V48.3663H61.0045V46.7533ZM63.092 48.3965C62.935 48.3965 62.8148 48.3503 62.7313 48.2575C62.648 48.165 62.6064 48.0342 62.6064 47.8649V46.7533C62.6064 46.5842 62.648 46.4533 62.7313 46.3606C62.8148 46.2681 62.935 46.2217 63.092 46.2217C63.2491 46.2217 63.3693 46.2681 63.4526 46.3606C63.536 46.4533 63.5777 46.5842 63.5777 46.7533V47.8649C63.5777 48.0342 63.536 48.165 63.4526 48.2575C63.3693 48.3503 63.2491 48.3965 63.092 48.3965ZM63.092 48.0946C63.2025 48.0946 63.2579 48.025 63.2579 47.886V46.7322C63.2579 46.5933 63.2025 46.5238 63.092 46.5238C62.9816 46.5238 62.9263 46.5933 62.9263 46.7322V47.886C62.9263 48.025 62.9816 48.0946 63.092 48.0946Z" fill="black"/>
<path d="M50.6358 49.7739H50.3014V49.5382C50.3925 49.5382 50.4657 49.5303 50.5209 49.5141C50.5761 49.4981 50.6204 49.4713 50.6532 49.4341C50.6861 49.3967 50.7153 49.343 50.7404 49.2725H50.9557V51.3868H50.6358V49.7739ZM52.7235 51.417C52.5663 51.417 52.4461 51.3708 52.3628 51.278C52.2794 51.1855 52.2377 51.0545 52.2377 50.8856V49.7739C52.2377 49.6047 52.2794 49.4738 52.3628 49.3812C52.4461 49.2886 52.5663 49.2422 52.7235 49.2422C52.8805 49.2422 53.0007 49.2886 53.0841 49.3812C53.1674 49.4738 53.209 49.6047 53.209 49.7739V50.8856C53.209 51.0545 53.1674 51.1855 53.0841 51.278C53.0007 51.3708 52.8805 51.417 52.7235 51.417ZM52.7235 51.1151C52.834 51.1151 52.8892 51.0457 52.8892 50.9065V49.7527C52.8892 49.6138 52.834 49.5443 52.7235 49.5443C52.6129 49.5443 52.5576 49.6138 52.5576 49.7527V50.9065C52.5576 51.0457 52.6129 51.1151 52.7235 51.1151ZM54.782 49.7739H54.4475V49.5382C54.5387 49.5382 54.6118 49.5303 54.667 49.5141C54.7223 49.4981 54.7665 49.4713 54.7994 49.4341C54.8325 49.3967 54.8614 49.343 54.8866 49.2725H55.1019V51.3868H54.782V49.7739ZM56.8552 49.7739H56.5206V49.5382C56.6117 49.5382 56.685 49.5303 56.7403 49.5141C56.7956 49.4981 56.8396 49.4713 56.8726 49.4341C56.9056 49.3967 56.9346 49.343 56.9599 49.2725H57.1751V51.3868H56.8552V49.7739ZM58.9314 49.7739H58.5968V49.5382C58.688 49.5382 58.7612 49.5303 58.8164 49.5141C58.8717 49.4981 58.9158 49.4713 58.9487 49.4341C58.9818 49.3967 59.0108 49.343 59.036 49.2725H59.2512V51.3868H58.9314V49.7739ZM61.019 51.417C60.862 51.417 60.7417 51.3708 60.6583 51.278C60.575 51.1855 60.5333 51.0545 60.5333 50.8856V49.7739C60.5333 49.6047 60.575 49.4738 60.6583 49.3812C60.7417 49.2886 60.862 49.2422 61.019 49.2422C61.176 49.2422 61.2963 49.2886 61.3796 49.3812C61.4629 49.4738 61.5046 49.6047 61.5046 49.7739V50.8856C61.5046 51.0545 61.4629 51.1855 61.3796 51.278C61.2963 51.3708 61.176 51.417 61.019 51.417ZM61.019 51.1151C61.1294 51.1151 61.1847 51.0457 61.1847 50.9065V49.7527C61.1847 49.6138 61.1294 49.5443 61.019 49.5443C60.9084 49.5443 60.8532 49.6138 60.8532 49.7527V50.9065C60.8532 51.0457 60.9084 51.1151 61.019 51.1151ZM63.0774 49.7739H62.7431V49.5382C62.8343 49.5382 62.9073 49.5303 62.9626 49.5141C63.0179 49.4981 63.0621 49.4713 63.0949 49.4341C63.128 49.3967 63.157 49.343 63.1821 49.2725H63.3974V51.3868H63.0774V49.7739Z" fill="black"/>
<path d="M50.6358 52.7944H50.3014V52.5588C50.3925 52.5588 50.4657 52.5508 50.5209 52.5346C50.5761 52.5186 50.6204 52.4918 50.6532 52.4545C50.6861 52.4174 50.7153 52.3635 50.7404 52.293H50.9557V54.4074H50.6358V52.7944ZM52.7088 52.7944H52.3744V52.5588C52.4655 52.5588 52.5386 52.5508 52.5941 52.5346C52.6493 52.5186 52.6934 52.4918 52.7264 52.4545C52.7593 52.4174 52.7883 52.3635 52.8136 52.293H53.0289V54.4074H52.7088V52.7944ZM54.782 52.7944H54.4475V52.5588C54.5387 52.5588 54.6118 52.5508 54.667 52.5346C54.7223 52.5186 54.7665 52.4918 54.7994 52.4545C54.8325 52.4174 54.8614 52.3635 54.8866 52.293H55.1019V54.4074H54.782V52.7944ZM56.8697 54.4376C56.7126 54.4376 56.5924 54.3912 56.5091 54.2987C56.4256 54.206 56.384 54.075 56.384 53.9059V52.7944C56.384 52.6254 56.4256 52.4944 56.5091 52.4017C56.5924 52.3092 56.7126 52.2627 56.8697 52.2627C57.0267 52.2627 57.147 52.3092 57.2303 52.4017C57.3137 52.4944 57.3554 52.6254 57.3554 52.7944V53.9059C57.3554 54.075 57.3137 54.206 57.2303 54.2987C57.147 54.3912 57.0267 54.4376 56.8697 54.4376ZM56.8697 54.1356C56.9802 54.1356 57.0354 54.0661 57.0354 53.927V52.7732C57.0354 52.6343 56.9802 52.5648 56.8697 52.5648C56.7591 52.5648 56.7039 52.6343 56.7039 52.7732V53.927C56.7039 54.0661 56.7591 54.1356 56.8697 54.1356ZM58.9314 52.7944H58.5968V52.5588C58.688 52.5588 58.7612 52.5508 58.8164 52.5346C58.8717 52.5186 58.9158 52.4918 58.9487 52.4545C58.9818 52.4174 59.0108 52.3635 59.036 52.293H59.2512V54.4074H58.9314V52.7944ZM61.0045 52.7944H60.6699V52.5588C60.7611 52.5588 60.8344 52.5508 60.8896 52.5346C60.9449 52.5186 60.9888 52.4918 61.0219 52.4545C61.0548 52.4174 61.0839 52.3635 61.1091 52.293H61.3243V54.4074H61.0045V52.7944ZM63.0774 52.7944H62.7431V52.5588C62.8343 52.5588 62.9073 52.5508 62.9626 52.5346C63.0179 52.5186 63.0621 52.4918 63.0949 52.4545C63.128 52.4174 63.157 52.3635 63.1821 52.293H63.3974V54.4074H63.0774V52.7944Z" fill="black"/>
<path d="M50.6358 55.8148H50.3014V55.5792C50.3925 55.5792 50.4657 55.5712 50.5209 55.5551C50.5761 55.5389 50.6204 55.5123 50.6532 55.4749C50.6861 55.4377 50.7153 55.3839 50.7404 55.3134H50.9557V57.4277H50.6358V55.8148ZM52.7088 55.8148H52.3744V55.5792C52.4655 55.5792 52.5386 55.5712 52.5941 55.5551C52.6493 55.5389 52.6934 55.5123 52.7264 55.4749C52.7593 55.4377 52.7883 55.3839 52.8136 55.3134H53.0289V57.4277H52.7088V55.8148ZM54.7965 57.4581C54.6393 57.4581 54.5193 57.4117 54.4359 57.3192C54.3525 57.2264 54.3108 57.0955 54.3108 56.9263V55.8148C54.3108 55.6457 54.3525 55.5147 54.4359 55.4221C54.5193 55.3295 54.6393 55.2832 54.7965 55.2832C54.9536 55.2832 55.0737 55.3295 55.1571 55.4221C55.2404 55.5147 55.2822 55.6457 55.2822 55.8148V56.9263C55.2822 57.0955 55.2404 57.2264 55.1571 57.3192C55.0737 57.4117 54.9536 57.4581 54.7965 57.4581ZM54.7965 57.1559C54.907 57.1559 54.9623 57.0864 54.9623 56.9475V55.7937C54.9623 55.6547 54.907 55.5852 54.7965 55.5852C54.686 55.5852 54.6308 55.6547 54.6308 55.7937V56.9475C54.6308 57.0864 54.686 57.1559 54.7965 57.1559ZM56.8552 55.8148H56.5206V55.5792C56.6117 55.5792 56.685 55.5712 56.7403 55.5551C56.7956 55.5389 56.8396 55.5123 56.8726 55.4749C56.9056 55.4377 56.9346 55.3839 56.9599 55.3134H57.1751V57.4277H56.8552V55.8148ZM58.9314 55.8148H58.5968V55.5792C58.688 55.5792 58.7612 55.5712 58.8164 55.5551C58.8717 55.5389 58.9158 55.5123 58.9487 55.4749C58.9818 55.4377 59.0108 55.3839 59.036 55.3134H59.2512V57.4277H58.9314V55.8148ZM61.019 57.4581C60.862 57.4581 60.7417 57.4117 60.6583 57.3192C60.575 57.2264 60.5333 57.0955 60.5333 56.9263V55.8148C60.5333 55.6457 60.575 55.5147 60.6583 55.4221C60.7417 55.3295 60.862 55.2832 61.019 55.2832C61.176 55.2832 61.2963 55.3295 61.3796 55.4221C61.4629 55.5147 61.5046 55.6457 61.5046 55.8148V56.9263C61.5046 57.0955 61.4629 57.2264 61.3796 57.3192C61.2963 57.4117 61.176 57.4581 61.019 57.4581ZM61.019 57.1559C61.1294 57.1559 61.1847 57.0864 61.1847 56.9475V55.7937C61.1847 55.6547 61.1294 55.5852 61.019 55.5852C60.9084 55.5852 60.8532 55.6547 60.8532 55.7937V56.9475C60.8532 57.0864 60.9084 57.1559 61.019 57.1559ZM63.092 57.4581C62.935 57.4581 62.8148 57.4117 62.7313 57.3192C62.648 57.2264 62.6064 57.0955 62.6064 56.9263V55.8148C62.6064 55.6457 62.648 55.5147 62.7313 55.4221C62.8148 55.3295 62.935 55.2832 63.092 55.2832C63.2491 55.2832 63.3693 55.3295 63.4526 55.4221C63.536 55.5147 63.5777 55.6457 63.5777 55.8148V56.9263C63.5777 57.0955 63.536 57.2264 63.4526 57.3192C63.3693 57.4117 63.2491 57.4581 63.092 57.4581ZM63.092 57.1559C63.2025 57.1559 63.2579 57.0864 63.2579 56.9475V55.7937C63.2579 55.6547 63.2025 55.5852 63.092 55.5852C62.9816 55.5852 62.9263 55.6547 62.9263 55.7937V56.9475C62.9263 57.0864 62.9816 57.1559 63.092 57.1559Z" fill="black"/>
<path d="M50.6358 58.8352H50.3014V58.5997C50.3925 58.5997 50.4657 58.5917 50.5209 58.5756C50.5761 58.5595 50.6204 58.5329 50.6532 58.4954C50.6861 58.4582 50.7153 58.4044 50.7404 58.3339H50.9557V60.4484H50.6358V58.8352ZM52.7088 58.8352H52.3744V58.5997C52.4655 58.5997 52.5386 58.5917 52.5941 58.5756C52.6493 58.5595 52.6934 58.5329 52.7264 58.4954C52.7593 58.4582 52.7883 58.4044 52.8136 58.3339H53.0289V60.4484H52.7088V58.8352ZM54.782 58.8352H54.4475V58.5997C54.5387 58.5997 54.6118 58.5917 54.667 58.5756C54.7223 58.5595 54.7665 58.5329 54.7994 58.4954C54.8325 58.4582 54.8614 58.4044 54.8866 58.3339H55.1019V60.4484H54.782V58.8352ZM56.8697 60.4786C56.7126 60.4786 56.5924 60.4322 56.5091 60.3397C56.4256 60.2469 56.384 60.1161 56.384 59.9468V58.8352C56.384 58.6662 56.4256 58.5352 56.5091 58.4427C56.5924 58.35 56.7126 58.3037 56.8697 58.3037C57.0267 58.3037 57.147 58.35 57.2303 58.4427C57.3137 58.5352 57.3554 58.6662 57.3554 58.8352V59.9468C57.3554 60.1161 57.3137 60.2469 57.2303 60.3397C57.147 60.4322 57.0267 60.4786 56.8697 60.4786ZM56.8697 60.1765C56.9802 60.1765 57.0354 60.1069 57.0354 59.9681V58.8142C57.0354 58.6752 56.9802 58.6057 56.8697 58.6057C56.7591 58.6057 56.7039 58.6752 56.7039 58.8142V59.9681C56.7039 60.1069 56.7591 60.1765 56.8697 60.1765ZM58.9314 58.8352H58.5968V58.5997C58.688 58.5997 58.7612 58.5917 58.8164 58.5756C58.8717 58.5595 58.9158 58.5329 58.9487 58.4954C58.9818 58.4582 59.0108 58.4044 59.036 58.3339H59.2512V60.4484H58.9314V58.8352ZM61.0045 58.8352H60.6699V58.5997C60.7611 58.5997 60.8344 58.5917 60.8896 58.5756C60.9449 58.5595 60.9888 58.5329 61.0219 58.4954C61.0548 58.4582 61.0839 58.4044 61.1091 58.3339H61.3243V60.4484H61.0045V58.8352ZM63.092 60.4786C62.935 60.4786 62.8148 60.4322 62.7313 60.3397C62.648 60.2469 62.6064 60.1161 62.6064 59.9468V58.8352C62.6064 58.6662 62.648 58.5352 62.7313 58.4427C62.8148 58.35 62.935 58.3037 63.092 58.3037C63.2491 58.3037 63.3693 58.35 63.4526 58.4427C63.536 58.5352 63.5777 58.6662 63.5777 58.8352V59.9468C63.5777 60.1161 63.536 60.2469 63.4526 60.3397C63.3693 60.4322 63.2491 60.4786 63.092 60.4786ZM63.092 60.1765C63.2025 60.1765 63.2579 60.1069 63.2579 59.9681V58.8142C63.2579 58.6752 63.2025 58.6057 63.092 58.6057C62.9816 58.6057 62.9263 58.6752 62.9263 58.8142V59.9681C62.9263 60.1069 62.9816 60.1765 63.092 60.1765Z" fill="black"/>
<path d="M56.8829 9.28993C56.7259 9.28993 56.6057 9.24368 56.5224 9.15104C56.4389 9.05841 56.3973 8.92768 56.3973 8.75832L56.386 7.91833C56.386 7.74911 56.5408 7.82189 56.6243 7.72925C56.7075 7.63661 57.3687 7.47759 57.3687 7.64681V8.75832C57.3687 8.92768 57.3269 9.05841 57.2435 9.15104C57.1603 9.24368 57.04 9.28993 56.8829 9.28993ZM56.8829 8.98781C56.9935 8.98781 57.0487 8.91843 57.0487 8.77968V7.73877C57.0487 7.59989 56.7172 7.62247 56.7172 7.76135V8.77968C56.7172 8.91843 56.7724 8.98781 56.8829 8.98781Z" fill="black"/>
<path d="M62.6829 8.06738L62.4086 8.11077L62.3779 7.91733C62.4528 7.9055 62.5118 7.88931 62.5551 7.86904C62.5985 7.84877 62.631 7.82116 62.6533 7.78606C62.6755 7.75124 62.6923 7.70336 62.7038 7.64214L62.8805 7.61426L63.1553 9.34947L62.8927 9.39109L62.6829 8.06738Z" fill="black"/>
<path d="M60.8252 7.91711L60.5273 7.95887L60.4978 7.74911C60.579 7.73769 60.6431 7.72136 60.6903 7.70014C60.7376 7.67892 60.7734 7.64981 60.7981 7.6124C60.8227 7.57513 60.8419 7.52357 60.8555 7.45746L61.0471 7.43066L61.3117 9.31306L61.027 9.35305L60.8252 7.91711Z" fill="black"/>
<path d="M58.9447 7.64649H58.6101V7.41075C58.7013 7.41075 58.7745 7.40272 58.8297 7.38667C58.885 7.37062 58.9291 7.34396 58.962 7.30668C58.9951 7.26941 59.0128 7.36259 59.0381 7.29199L59.2645 7.31457V9.25954H58.9447V7.64649Z" fill="black"/>
<path d="M33.5045 76.0995L33.6955 76.1473L34.0682 76.2685L34.2372 76.3678L34.5609 76.5935L34.695 76.7418L34.944 77.0643L35.0317 77.2591L35.1116 77.4603L35.1413 77.5686L35.1929 77.7904L35.2058 77.9091L35.1826 78.4612L35.0872 78.8287L35.0059 79.0003L34.8228 79.3319L34.7041 79.4711L34.4499 79.7304L34.3016 79.8219L34.1404 79.9096L34.0502 79.9432L33.8644 80.0064L33.7651 80.0283L33.355 80.0902L33.1434 80.0838L32.7203 80.0477L32.5244 79.9922L32.3308 79.9315L32.2418 79.8916L32.0703 79.8078L31.9954 79.7562L31.7001 79.502L31.5325 79.3009L31.4654 79.1886L31.3389 78.9578L31.2926 78.8352L31.21 78.5837L31.1867 78.4548L31.1493 78.1928L31.1481 78.0626L31.1596 77.8021L31.1829 77.677L31.2422 77.4281L31.2912 77.3106L31.4022 77.0837L31.4782 76.9817L31.7078 76.7147L31.873 76.56L31.9607 76.4955L32.3243 76.2685L32.5178 76.2014L32.9099 76.0957L33.1085 76.0879L33.5045 76.0995ZM40.7882 76.4632V79.6878H41.6097L42.016 79.6748L42.2327 79.6529L42.3217 79.6323L42.4881 79.5872L42.5578 79.5549L42.6918 79.4826L42.7525 79.4337L43.0118 79.1758L43.1498 78.9797L43.2001 78.8727L43.2891 78.6534L43.3149 78.5386L43.3562 78.3064L43.3575 78.1891L43.3496 77.9517L43.3277 77.8344L43.271 77.6021L43.2245 77.49L43.1188 77.2707L43.0479 77.1687L42.8931 76.9701L42.7977 76.8824L42.5293 76.658L42.372 76.5613L42.2882 76.5316L42.1089 76.4865L41.9928 76.4762L41.7375 76.4632H40.7882ZM33.2014 76.4632L32.8673 76.4787L32.6842 76.5058L32.6055 76.5316L32.4534 76.5896L32.3811 76.6336L32.2353 76.7302L32.1579 76.7948L31.8614 77.1185L31.713 77.361L31.664 77.49L31.5814 77.753L31.5647 77.8885L31.5453 78.1606L31.5595 78.2948L31.6033 78.5593L31.6485 78.6856L31.753 78.932L31.829 79.0428L31.9929 79.2544L32.0974 79.3434L32.3192 79.5084L32.4521 79.5691L32.7488 79.7006L32.8648 79.738L33.0777 79.7948H33.1756L33.3717 79.7768L33.4865 79.7407L33.7289 79.649L33.8914 79.5743L34.2449 79.3577L34.4396 79.1783L34.517 79.0751L34.6551 78.8597L34.7028 78.7424L34.7827 78.5025L34.8009 78.376L34.8228 78.122L34.8098 77.993L34.7711 77.7337L34.7274 77.606L34.6254 77.3545L34.5506 77.2346L34.3842 76.9986L34.2771 76.8915L34.0308 76.6683L33.8863 76.569L33.8102 76.538L33.6517 76.489L33.5536 76.4775L33.342 76.4632H33.2014ZM41.3686 76.1486L41.8084 76.1627L42.0689 76.1833L42.1837 76.2002L42.4042 76.2388L42.501 76.2659L42.6881 76.3253L42.7705 76.3627L42.928 76.4452L42.9976 76.4942L43.1318 76.6012L43.1923 76.6645L43.4142 76.9456L43.5096 77.134L43.6709 77.5338L43.7367 77.8034L43.7508 77.9362L43.765 78.2032L43.7535 78.3334L43.7173 78.5902L43.6812 78.7139L43.5961 78.9565L43.5367 79.0686L43.4052 79.2906L43.3226 79.3911L43.1459 79.5846L43.0414 79.6684L42.8221 79.8284L42.697 79.8941L42.5733 79.9457L42.4843 79.9676L42.2933 80.0089L42.1785 80.0244L41.9361 80.0528L41.8019 80.0618L41.5259 80.0747H40.4128L40.3367 79.6556L40.3212 79.5394L40.3135 79.4349L40.3096 79.3705L40.2968 79.0829L40.2929 78.9049L40.289 78.5295V78.3231L40.2929 77.9015L40.298 77.6886L40.3367 76.1408L41.3686 76.1486Z" fill="black"/>
<path d="M45.8827 66.1439L46.1445 66.1453L46.2684 66.1465L46.4683 66.1517L46.5624 66.1542L46.7146 66.1659L46.7856 66.1736L46.9004 66.1955L47.0074 66.2188L47.1622 66.3078L47.4021 66.5205L47.4795 66.5979L47.5904 66.7346L47.6408 66.8031L47.7065 66.941L47.7337 67.0133L47.7632 67.1822L47.7787 67.4983V67.6207L47.7632 67.8142L47.7516 67.9058L47.7065 68.0554L47.6781 68.1276L47.5904 68.2618L47.4021 68.4759L47.3106 68.5675L47.1622 68.6888L47.0874 68.7416L46.9004 68.8009L46.8463 68.8139L46.7146 68.8306L46.6437 68.837L46.4683 68.8448L46.3754 68.8486L46.1445 68.8512L45.7254 68.8525H44.4253V66.1439H45.8827ZM45.3319 65.6279H43.9093V69.5L43.9106 69.807V69.9553L43.9118 70.221V70.35L43.9145 70.5783L43.917 70.7989L43.9248 71.1393L43.9299 71.2942L43.9442 71.5211L43.9518 71.6218L43.9751 71.7585L43.988 71.8178L44.0214 71.8861L44.0396 71.9146L44.0848 71.9377L44.1672 71.9481H44.2279L44.3092 71.9158L44.3452 71.8888L44.3865 71.7546L44.3955 71.7121L44.4071 71.596L44.4123 71.5314L44.4188 71.3677L44.4213 71.2787L44.424 71.0594L44.4253 70.942V69.3685H45.8414L46.1588 69.3581L46.3109 69.3517L46.5818 69.3272L46.7121 69.3129L46.9429 69.2718L47.0526 69.2498L47.246 69.1905L47.3389 69.1583L47.5027 69.0782L47.5801 69.0356L47.7182 68.9351L48.0587 68.5403L48.1037 68.4695L48.1734 68.3004L48.2044 68.2128L48.247 68.0194L48.2831 67.8207L48.2779 67.3938L48.2624 67.1822L48.1592 66.7876L48.127 66.6947L48.0457 66.5295L47.8999 66.3219L47.7696 66.1827L47.4989 65.9775L47.3557 65.886L47.0049 65.7648L46.9094 65.739L46.6914 65.7002L46.5779 65.6822L46.3173 65.6576L46.1806 65.6473L45.8685 65.6345L45.3319 65.6279Z" fill="black"/>
<path d="M76.4275 71.4325H78.1042L78.633 71.4339L78.9219 71.4364L79.0367 71.4391L79.2508 71.4442L79.3333 71.4494L79.4843 71.461L79.5385 71.47L79.6364 71.488L79.6701 71.5009L79.7268 71.5293L79.7423 71.5473L79.7809 71.6299V71.6906L79.7758 71.7989L79.7384 71.8349L79.6945 71.8673L79.6571 71.8801L79.5708 71.9034L79.5088 71.9123L79.3682 71.9266L79.2741 71.9317L79.0664 71.9408L78.9336 71.9433L78.6472 71.9472H78.4692L78.0887 71.9485H75.9374L75.9178 71.9374L75.9043 71.9093L75.891 71.8595L75.8848 71.8116L75.8774 71.731L75.8744 71.6723L75.8728 71.6356L75.8703 71.5688L75.8672 71.4829L75.8652 71.405L75.8637 71.3445L75.8638 71.2777L75.8513 70.8602L75.8509 70.4974L75.8212 69.8022L75.8057 69.2631L75.8019 68.9807L75.7968 68.4092V68.1358L75.8005 67.6005L75.8057 67.3697L75.8199 66.8305L75.829 66.5378L75.8354 66.4203L75.847 66.205L75.8535 66.1224L75.8703 65.9715L75.8806 65.9161L75.9037 65.818L75.9192 65.7844L75.9514 65.7264L75.9721 65.7084L76.0662 65.662L76.1372 65.6516L76.4275 65.6104" fill="black"/>
<path d="M62.0813 65.6526L62.173 65.69L62.2387 65.7443L62.2762 65.7893L62.3549 65.8952L62.4013 65.9699L62.4992 66.1389L62.5573 66.2499L62.6799 66.4936L62.7521 66.6471L62.9068 66.9773L62.9984 67.1784L63.1906 67.6093L63.3042 67.8647L63.5402 68.4064L63.6769 68.7236L64.1877 69.9077L64.3411 70.2676L64.4121 70.4315L64.5475 70.7513L64.6068 70.8931L64.7216 71.164L64.7693 71.2776L64.8583 71.4917L64.8919 71.5742L64.9525 71.7238L64.9706 71.7702L64.9989 71.845V71.8515L64.9177 71.9199L64.7912 71.9482H64.7074L64.5424 71.916L64.4468 71.8528L64.3991 71.7948L64.3025 71.6567L64.2482 71.5522L64.1348 71.3175L64.0638 71.155L63.7221 70.3617L62.3664 70.4495L61.9331 70.4765L61.6983 70.4907L61.6042 70.4934L61.4301 70.4984H61.3643L61.243 70.4946L61.1991 70.4895L61.1217 70.4753L61.096 70.4637L61.0521 70.4379L61.0393 70.4211L61.0108 70.3386V70.2754L61.0418 70.1309L61.1165 70.0702L61.203 70.0522L61.2984 70.0367L61.363 70.0316L61.5036 70.0225L61.5926 70.02L61.786 70.0161L61.9046 70.0148L62.1587 70.0136H62.3109L62.8126 70.0045L63.1029 69.9915L63.2177 69.9826L63.4215 69.9606L63.4834 69.9477L63.5363 69.9349L63.5505 69.9283L63.5724 69.9142L63.5685 69.9064L63.0604 68.6734L62.8901 68.2735L62.8089 68.0852L62.6489 67.715L62.5741 67.5474L62.4309 67.2236L62.369 67.0857L62.249 66.8251L62.2013 66.7244L62.1123 66.5439L62.0827 66.4898L62.0336 66.4046H62.026L62.0002 66.4382L61.9679 66.4923L61.9473 66.5349L61.8995 66.629L61.8699 66.6897L61.808 66.82L61.7718 66.8974L61.6145 67.2391L61.5203 67.4493L61.3217 67.893L61.2121 68.1432L60.985 68.6604L60.8664 68.9365L60.6251 69.4976L60.5027 69.784L60.2601 70.3592L60.1415 70.6417L59.9093 71.2014L59.8023 71.4646L59.734 71.6219L59.6978 71.6825L59.6269 71.7935L59.5895 71.8334L59.5121 71.9018L59.4708 71.9199L59.3869 71.9482H59.3405L59.1534 71.9121L59.0762 71.8592V71.8257L59.0981 71.7471L59.1342 71.6477L59.1613 71.5768L59.2219 71.4219L59.2606 71.3265L59.3431 71.124L59.3908 71.0079L59.4914 70.7668L59.5469 70.6338L59.6617 70.3605L59.7237 70.216L59.9803 69.6124L60.117 69.2938L60.3943 68.6528L60.531 68.3393L60.8006 67.7241L60.9231 67.4468L61.0444 67.1772L61.0998 67.0547L61.2069 66.8173L61.2546 66.7128L61.3461 66.5155L61.3849 66.4355L61.4558 66.2859L61.483 66.233L61.6506 65.9287L61.746 65.7881L61.7912 65.7443L61.8802 65.6745L61.9279 65.6604L62.0246 65.6436" fill="black"/>
<path d="M29.9072 65.6758L30.0026 65.6977L30.0517 65.7324L30.151 65.8164L30.2039 65.8821L30.311 66.0291L30.369 66.1271L30.4876 66.3361L30.5522 66.4651L30.6862 66.7372L30.7599 66.8985L30.912 67.2338L30.9959 67.426L31.1712 67.8259L31.268 68.0489L31.4691 68.5133L31.5801 68.7687L32.0999 69.967L32.2572 70.3281L32.3282 70.4945L32.4661 70.8143L32.5268 70.9562L32.6429 71.2271L32.6906 71.3406L32.781 71.5521L32.8144 71.6334L32.8751 71.7792L32.8931 71.8229L32.9202 71.8927V71.8965L32.8299 71.9326L32.6971 71.9481H32.6133L32.4469 71.9185L32.3527 71.8642L32.3088 71.8114L32.2211 71.6889L32.1748 71.5948L32.0767 71.3844L32.0173 71.2387L31.7297 70.5292H30.3162L29.8892 70.528L29.6544 70.5255L29.5576 70.5228L29.3809 70.5164L29.3113 70.5112L29.1849 70.5009L29.1372 70.4933L29.0547 70.4764L29.0262 70.4648L28.9773 70.4403L28.9644 70.4248L28.936 70.3552L28.9463 70.3036L29.0146 70.1849L29.1166 70.1282L29.2095 70.1076L29.3113 70.0869L29.3745 70.0791L29.5112 70.0624L29.5964 70.0546L29.7744 70.0405L29.8814 70.0341L30.1071 70.0198L30.2387 70.0134L31.4885 69.9489L30.7068 68.1431L30.4012 67.4402L30.2206 67.0249L30.1471 66.8585L30.0775 66.6999L30.0478 66.634L29.9924 66.5089L29.9704 66.4612L29.933 66.3761L29.9202 66.3503L29.9008 66.3103L29.8995 66.3078L29.8698 66.3594L29.8285 66.4496L29.7976 66.5192L29.7292 66.6766L29.6867 66.7773L29.595 66.9926L29.5422 67.119L29.43 67.386L29.3681 67.5357L29.2391 67.8452L29.1695 68.0142L28.8779 68.7222L28.7206 69.1118L28.5942 69.4201L28.5362 69.5619L28.4239 69.838L28.3723 69.9631L28.1763 70.4351L28.095 70.6273L27.9416 70.9847L27.877 71.1252L27.7571 71.3844L27.7068 71.4825L27.6127 71.6579L27.5727 71.7197L27.4965 71.8269L27.463 71.8603L27.3972 71.9158L27.365 71.9288L27.3018 71.9468H27.2683H27.1457L27.0838 71.9377L27.067 71.9171L27.0425 71.8655L27.0476 71.8114L27.0697 71.685L27.1019 71.5844L27.138 71.4761L27.1624 71.4102L27.214 71.271L27.245 71.1884L27.3134 71.0142L27.3546 70.9137L27.4411 70.7008L27.4913 70.5796L27.5972 70.3255L27.6577 70.1811L27.7841 69.8805L27.8551 69.7116L28.0034 69.3608L28.086 69.1659L28.2563 68.7623L28.3504 68.5378L28.6355 67.8619L28.8057 67.4557L28.8831 67.2751L29.0328 66.9295L29.0999 66.7798L29.23 66.4948L29.2907 66.3749L29.4067 66.1517L29.461 66.0613L29.5667 65.8988L29.6171 65.8408L29.7164 65.739L29.7641 65.7119L29.8595 65.6719" fill="black"/>
<path d="M11.3969 68.3995L11.9013 69.4752L12.0547 69.7989L12.1257 69.9459L12.2637 70.231L12.3256 70.3574L12.4443 70.596L12.4947 70.6966L12.5901 70.8824L12.6274 70.9533L12.6945 71.0784L12.7177 71.1159L12.7538 71.1725H12.7604L12.7913 71.1314L12.83 71.0655L12.857 71.0139L12.9165 70.9004L12.9524 70.8283L13.0299 70.6735L13.0738 70.5818L13.2673 70.1846L13.3807 69.9447L13.6181 69.4442L13.7457 69.1696L14.2732 68.028L14.5222 67.4773L14.7634 66.9381L14.8705 66.6957L15.0716 66.2339L15.149 66.0482L15.2561 65.8314L15.3297 65.7334L15.3747 65.7038L15.4715 65.6547L15.536 65.6444L15.6792 65.6289H16.2247V71.949H15.5799L15.5747 69.2082L15.5708 66.4673L15.1156 67.4347L15.0084 67.6656L14.9246 67.8474L14.8782 67.9506L14.677 68.3904L14.5647 68.6394L14.0915 69.688L13.876 70.1755L13.6142 70.7585L13.4632 71.0798L13.3988 71.2087L13.2749 71.4486L13.2208 71.5415L13.1163 71.7079L13.0686 71.7659L12.9783 71.8679L12.9345 71.8974L12.8494 71.9426L12.8068 71.9465L12.7216 71.9439L12.6765 71.9271L12.5849 71.8833L12.5333 71.8497L12.4804 71.7775L12.4224 71.6796L12.3824 71.6073L12.2973 71.45L12.2469 71.3519L12.14 71.1455L12.0793 71.0269L11.9542 70.7792L11.8871 70.6437L11.7491 70.3665L11.6769 70.2194L11.3789 69.6106L11.2268 69.2947L10.9249 68.6639L10.7856 68.366L10.5147 67.7869L10.4026 67.5418L10.2968 67.3058L10.2516 67.2038L10.1678 67.0116L10.1356 66.9343L10.0776 66.7937L10.0594 66.7459L10.0336 66.6672V66.6531L10.0053 66.5679L9.96402 66.5318H9.93696L9.91882 66.5873L9.90725 66.6763L9.90334 66.7459L9.89441 66.8982L9.89051 66.9961L9.88409 67.2051L9.88144 67.3277L9.87754 67.5843L9.87628 67.7288L9.87377 68.0268L9.87503 68.1893L9.87754 68.8677L9.88409 69.2404L9.92664 71.949H9.25977V65.6289H10.1162" fill="black"/>
<path d="M54.8264 76.1084L54.887 76.1625L54.9269 76.2038L55.0122 76.2942L55.0624 76.3522L55.1695 76.4761L55.2288 76.5496L55.4854 76.8694L55.6312 77.0616L55.9318 77.4665L56.0891 77.6872L57.2332 79.2993L57.2693 77.6872L57.2809 77.2409L57.2899 76.9867L57.2951 76.881L57.3067 76.6811L57.3131 76.5998L57.3273 76.4476L57.3351 76.3883L57.3531 76.28L57.3634 76.2387L57.3853 76.1677L57.3983 76.1433L57.4563 76.0762H57.495L57.5918 76.1536L57.6149 76.2193L57.6252 76.267L57.642 76.3754L57.6498 76.4489L57.6614 76.6062L57.6665 76.7082L57.6743 76.9249L57.6769 77.0577L57.682 77.3402L57.6833 77.5091L57.6847 77.8664V78.0754L57.6833 78.6106L57.6795 78.9176L57.6769 79.0479L57.6704 79.2942L57.6665 79.3961L57.6562 79.5857L57.6498 79.6619L57.6356 79.8025L57.6265 79.8553L57.6085 79.9495L57.5982 79.983L57.5736 80.0385L57.5608 80.0527L57.5311 80.0746H57.5156L57.4576 80.0424L57.3983 79.9895L57.3583 79.9482L57.2732 79.8578L57.2228 79.7998L57.1171 79.6773L57.0564 79.6051L56.7998 79.2878L56.654 79.0956L56.3509 78.6958L56.1936 78.4753L55.0405 76.8758L55.0044 78.4753L54.9967 78.786L54.9928 78.919L54.9837 79.1705L54.9785 79.2762L54.967 79.4736L54.9606 79.5547L54.9463 79.7044L54.9387 79.7637L54.9205 79.8721L54.9102 79.9121L54.8883 79.9844L54.8753 80.0088L54.8173 80.0746H54.7787L54.6819 79.9972L54.6587 79.9313L54.6484 79.8836L54.6317 79.7754L54.6238 79.7019L54.6123 79.5444L54.6071 79.4426L54.5994 79.2258L54.5968 79.0931L54.5916 78.8106L54.5904 78.6415L54.5891 78.2843V78.0754L54.5904 77.526L54.5943 77.2138L54.5968 77.0823L54.6032 76.8345L54.6071 76.7327L54.6174 76.5444L54.6238 76.4709L54.6381 76.3341L54.6471 76.2825L54.6664 76.1922L54.6781 76.1613L54.731 76.0762H54.7671" fill="black"/>
<path d="M49.2066 76.1509L49.2311 76.2155L49.2402 76.2632L49.2582 76.3689L49.266 76.4412L49.2776 76.5985L49.2828 76.6991L49.2906 76.9159L49.2931 77.0499L49.2982 77.3338L49.2995 77.5039L49.3007 77.8638V78.0754V78.4765L49.2995 78.6467L49.2957 78.9679L49.2931 79.1007L49.2879 79.351L49.2828 79.4517L49.2724 79.6373L49.266 79.7096L49.2505 79.8398L49.2402 79.8875L49.2196 79.9726L49.2066 79.9998L49.1486 80.0746H49.1073L49.008 79.9998L48.9836 79.9353L48.9745 79.8875L48.9565 79.7818L48.9487 79.7096L48.9371 79.5522L48.932 79.4517L48.9241 79.2349L48.9216 79.1007L48.9165 78.817L48.9152 78.6467L48.9138 78.2868V78.0754L48.9152 77.5039L48.919 77.1828L48.9216 77.0499L48.9268 76.7998L48.932 76.6991L48.9423 76.5134L48.9487 76.4412L48.9642 76.3109L48.9745 76.2632L48.9951 76.178L49.008 76.1509L49.0661 76.0762H49.1073" fill="black"/>
<path d="M64.7412 76.0762L65.1642 76.142L65.4597 76.2426L65.5951 76.3122L65.8557 76.4592L65.9523 76.5418L66.044 76.6256L66.0774 76.6669L66.1381 76.7507L66.1536 76.792L66.1949 76.9842L66.1652 77.0474H66.1214L66.013 77.0267L65.9292 76.9842L65.7396 76.8771L65.6145 76.792L65.1875 76.5715L64.8935 76.4864L64.7463 76.4747L64.4498 76.4734L64.3026 76.5044L64.0125 76.5857L63.8719 76.6592L63.5971 76.8564L63.4411 77.0242L63.3779 77.1235L63.2618 77.3286L63.218 77.4421L63.1431 77.673L63.1225 77.7929L63.0903 78.0367L63.0915 78.158L63.1057 78.4016L63.1303 78.5191L63.1922 78.7499L63.2412 78.857L63.3535 79.0633L63.4282 79.1536L63.7185 79.4362L63.926 79.5805L64.0344 79.6309L64.2549 79.7172L64.3672 79.7393L64.5942 79.7676L64.7077 79.7612L64.9334 79.7327L65.0457 79.6967L65.2662 79.6115L65.3719 79.5483L65.5823 79.4065L65.6802 79.3148L65.8711 79.1176L65.9575 78.9976L66.3471 78.4623L65.6919 78.4237L65.3926 78.3952L65.2417 78.3682L65.1888 78.3502L65.0985 78.3101L65.0727 78.2856L65.0366 78.2315V78.1979L65.0766 78.1076L65.1502 78.0651L65.2146 78.0508L65.3643 78.0264L65.4739 78.0199L65.7176 78.0109H66.7237L66.6863 79.0002L66.6605 79.4323L66.6347 79.6644L66.6179 79.7509L66.5818 79.9069L66.5599 79.9559L66.5135 80.0346L66.4877 80.0424L66.4181 80.0397L66.3807 80.0075L66.3664 79.9765L66.3432 79.9057L66.3367 79.8553L66.3264 79.7457L66.3592 78.9061C66.5163 78.757 66.1581 79.3761 65.7485 79.7496L65.5422 79.8902L65.4648 79.9301L65.3436 79.983L65.2714 80.0023L65.1217 80.0385L65.0393 80.05L64.6897 80.0785L64.5078 80.0694L64.1428 80.0346L63.9803 79.9947L63.8242 79.9495L63.7545 79.9224L63.6242 79.8644L63.5713 79.8295L63.1857 79.5109L62.9897 79.2723L62.9201 79.1356L62.8001 78.8519L62.7653 78.6894L62.7163 78.3488V78.1553L62.7537 77.7194L62.8181 77.4473L62.8671 77.3222L62.9755 77.0784L63.0465 76.9675L63.1974 76.7559L63.2876 76.6644L63.4772 76.4889L63.5843 76.4166L63.8075 76.2825L63.93 76.231L64.1814 76.142L64.3169 76.1162L64.5942 76.0762" fill="black"/>
<path d="M25.1194 76.087L25.3618 76.1219L25.478 76.1516L25.7049 76.2186L25.8094 76.265L26.0107 76.3657L26.097 76.4275L26.2609 76.5592L26.3254 76.6365L26.3976 76.7436L26.4195 76.8029V76.8262L26.3885 76.9022L26.3396 76.9125L26.2196 76.9139L26.1383 76.8842L25.9655 76.8029L25.8726 76.7281L25.4896 76.5423L25.1723 76.4727L25.0021 76.4651L24.655 76.4688L24.4899 76.4998L24.1662 76.5811L24.0321 76.6507L23.7379 76.8867L23.56 77.1099L23.4877 77.2414L23.3549 77.5136L23.3124 77.6555L23.2465 77.9366V78.0656L23.3021 78.4668L23.3898 78.7453L23.4516 78.8756L23.5858 79.1285L23.6644 79.2317L23.8269 79.4186L23.9134 79.4741L24.348 79.687L24.6408 79.7605L24.7892 79.763L25.0897 79.745L25.2458 79.7025L25.5604 79.5953L25.7256 79.5063L25.9694 79.3876L26.1061 79.3323L26.1616 79.3155L26.2634 79.2897L26.2996 79.2871L26.364 79.2897L26.3809 79.3013L26.4053 79.331L26.4028 79.3554L26.3846 79.4109L26.3602 79.4483L26.2996 79.5282L26.2519 79.5773L26.1461 79.6806L26.0751 79.7398L25.9358 79.8417L25.8559 79.883L25.6855 79.9604L25.5914 79.9901L25.1955 80.0816L24.9839 80.0881L24.5545 80.0764L24.3507 80.0314L24.1494 79.9797L24.0565 79.9436L23.8748 79.8662L23.7935 79.8173L23.3898 79.487L23.1782 79.2239L23.0995 79.0756L22.9628 78.7711L22.9228 78.6099L22.8609 78.281L22.8596 78.1147L22.8738 77.7793L22.91 77.6168L23.0002 77.293L23.075 77.1421L23.2426 76.8481L23.3549 76.7165L23.5987 76.4688L23.7497 76.3683L24.0489 76.2148L24.2706 76.1399L24.3881 76.1168L24.628 76.0806L24.7505 76.0755L24.9969 76.0742" fill="black"/>
<path d="M59.0768 7.4218L58.2567 7.53618L57.9749 7.58503L57.8465 7.61154L57.6039 7.66177L57.5076 7.68689L57.124 7.79562L56.9609 7.86263L56.6927 7.9565L56.4296 8.07096L56.2376 8.15136L56.0737 8.22524L55.9342 8.28668L55.6385 8.42748L55.4698 8.51961L55.1211 8.71621L54.9341 8.83198L54.5506 9.07334L54.3539 9.20719L53.5589 9.7763L53.1892 10.086L52.9298 10.3412L52.8674 10.3987L52.7271 10.5366L52.6536 10.6132L52.6019 10.6593L52.5657 10.6955L52.3983 10.8712L52.2839 10.9996L52.0385 11.2799L51.8976 11.4487L51.6019 11.8031L51.4456 11.9969L51.0258 12.5492L50.7427 12.9495L50.6018 13.163L50.0439 14.0389L49.79 14.4881L49.5403 14.9372L49.4259 15.1562L49.2055 15.5928L49.1079 15.8006L48.9224 16.2107L48.8457 16.399L48.7048 16.7672L48.6532 16.9305L48.4928 17.3629L48.4398 17.4814L48.4161 17.526L48.3851 17.5855L48.3616 17.6551L48.3317 17.7331C48.3293 17.7326 48.3042 17.8076 48.3042 17.8076L48.2768 17.8968L48.2323 18.0442C48.2323 18.0442 48.1396 18.3527 48.1396 18.3562C48.1396 18.3589 48.087 18.5197 48.055 18.6013L48.0138 18.7235L47.9892 18.8079L47.9181 18.9961L47.879 19.1091L47.7982 19.3462L47.7563 19.4816L47.6684 19.7619L47.6225 19.9154L47.4327 20.5709L47.3337 20.9448L47.13 21.7203L47.0268 22.1401L46.819 22.9952L46.7186 23.4415L46.321 25.2562L46.1565 26.1363L45.6697 28.9957L45.3962 30.901L45.2805 31.8802L45.1689 32.8636L45.1173 33.3671L45.0183 34.3839L44.9723 34.9071L44.8858 35.9657L44.8453 36.5139L44.7686 37.6242L44.7323 38.2016L44.7184 38.4876L44.7086 38.7079L44.7044 38.8335L44.6891 39.3718L44.6821 39.6927L44.6696 40.3692L44.664 40.7527L44.6542 41.5478L44.6514 41.983L44.6458 42.8771L44.6431 43.3542L44.6403 44.3292V45.8746L44.6417 46.4075L44.6444 47.4842L44.6472 48.0324L44.6612 50.2391L44.6723 51.3312L44.6836 52.4177L44.6905 52.9478L44.7044 53.9995L44.7128 54.5045L44.7295 55.5017L44.7379 55.9732L44.7574 56.8952L44.7672 57.3234L44.7895 58.1533L44.8007 58.5257L44.8244 59.244L44.837 59.5551L44.9248 61.7282L65.3605 61.819L67.443 61.8287L68.803 61.8357L69.4669 61.8384L70.7836 61.8455L71.4239 61.8496L72.689 61.8566L73.3013 61.8608L74.5092 61.8677L75.0895 61.8705L76.2333 61.8789L76.7772 61.8817L77.8499 61.8901L78.3561 61.8928L79.3493 61.9012L79.8138 61.9041L81.1092 61.9485C81.6379 61.9605 81.6124 62.1908 81.0838 62.1788L80.1987 62.1857L79.7273 62.19L78.7606 62.197L78.2459 62.2011L77.1957 62.2081L76.6405 62.2123L75.5149 62.2193L74.9249 62.2221L73.7281 62.2304L73.1074 62.2332L71.8478 62.2402L71.1979 62.2443L69.8839 62.2514L69.2089 62.2555L67.8475 62.2625L67.1514 62.2653L65.7483 62.2722L65.0341 62.275L63.9657 62.2807L63.451 62.2834L62.4356 62.2876L61.9474 62.2904L60.9835 62.2946L60.5204 62.2973L59.6054 62.3015L59.1674 62.3043L58.3026 62.3086L57.8884 62.3113L57.071 62.3155L56.6805 62.3183L55.9091 62.3225L55.5409 62.3238L54.8156 62.3294L54.4696 62.3308L53.7876 62.3365L53.4626 62.3378L52.8238 62.342L52.5196 62.3448L51.9213 62.349L51.6382 62.3517L51.0803 62.3573L50.8152 62.3587L50.2963 62.3644L50.0508 62.3657L49.5682 62.3713L49.3408 62.3741L48.4677 62.3838L48.0813 62.3894L47.3435 62.3992L47.0213 62.4048L46.4075 62.4173L46.1439 62.4229L45.646 62.4354L45.4354 62.441L45.042 62.455L44.8802 62.462L44.5789 62.4773L44.4617 62.4843L44.2441 62.4996L44.1646 62.508L44.021 62.5261L43.9736 62.5344L43.8926 62.554L43.8731 62.5637L43.5025 62.564L43.4923 61.1159L43.4951 60.5733L43.5007 60.1284L43.5035 59.869L43.5119 59.3264L43.5174 59.0223L43.5286 58.3932L43.5342 58.0501L43.5481 57.3485L43.5565 56.9746L43.5718 56.2131L43.5816 55.8155L43.6179 54.178L43.6388 53.3189L43.682 51.5864L43.7044 50.7188L43.7504 48.9934L43.7741 48.1705L43.7978 47.3546L43.8089 46.964L43.8327 46.1926L43.8438 45.8286L43.8661 45.1158L43.8773 44.7838L43.8996 44.1408L43.9094 43.8507L44.0238 40.9704L44.1075 39.1446L44.1535 38.2755L44.2483 36.5683L44.3013 35.7579L44.4073 34.1636L44.4659 33.4062L44.5845 31.9207L44.6486 31.2149L44.7826 29.8298L44.8536 29.1743L45.0016 27.8855L45.0796 27.2745L45.2428 26.0763L45.3293 25.51L45.5078 24.397L45.6041 23.8697L45.7994 22.8347L45.904 22.3451L46.1174 21.3841L46.2318 20.9294L46.4633 20.0367L46.5875 19.6127L46.8399 18.7814L46.9738 18.388L47.2458 17.6125L47.3894 17.2442L47.6838 16.5189L47.8386 16.1744L48.1553 15.4938L48.3226 15.1701L48.8067 14.2858L49.1512 13.7167L49.3311 13.4434L49.6994 12.905L49.8932 12.6455L50.2838 12.1378L50.4874 11.8951L50.9003 11.418L51.1137 11.192L51.5461 10.7499L51.7678 10.5407L52.2184 10.132L52.4485 9.94092L52.913 9.56849L53.1515 9.39553L53.63 9.06074L53.8741 8.90734L54.3651 8.61027L54.6147 8.47633L55.1155 8.21967L55.3693 8.10669L55.8784 7.89192L56.1351 7.79988L56.6512 7.62692L56.9106 7.55713L57.4309 7.42884L57.6917 7.38139L58.2148 7.29769L58.4756 7.27396L59 7.23772H59.2609L60.1773 7.23633L60.1791 7.27553L59.8787 7.34236L59.0768 7.4218Z" fill="black"/>
<path d="M43.1339 6.97976L43.1284 6.98949L43.0991 7.016L43.0558 7.03695L42.9498 7.08718L42.8675 7.11925L42.6806 7.19035L42.5565 7.23502L41.7125 7.57538L41.156 7.84038L40.8827 7.991L40.3401 8.30346L40.0736 8.47642L39.5464 8.83346L39.2911 9.02737L38.7835 9.4263L38.5379 9.64115L38.0525 10.0805L37.8196 10.3148L37.3607 10.7904L37.1431 11.0415L36.7135 11.5534L36.5113 11.8198L36.1095 12.4056L35.818 12.8757L35.666 13.1421L35.3577 13.6959L35.2001 13.9944L34.8848 14.6067L34.7287 14.9275L34.1108 16.2372L33.8373 16.8887L33.571 17.5359L33.4524 17.8469L33.2264 18.4593L33.1316 18.7437L32.4188 21.0802L31.9766 22.7233L31.773 23.581L31.3783 25.3204L31.1983 26.2201L30.8524 28.0389L30.7004 28.9721L30.4075 30.8524L30.282 31.8092L30.0434 33.7341L29.9472 34.7063L29.7686 36.6562L29.7016 37.6354L29.5845 39.5951L29.5496 40.5729L29.5245 41.4587L29.512 42.1351L29.5064 42.5117L29.498 43.2886L29.4952 43.7071L29.4924 44.5663V45.9417L29.4952 46.4201L29.5009 47.3895L29.505 47.8846L29.5273 49.8904L29.5454 50.8947L29.5943 53.7276L29.6096 54.6635L29.6166 55.1182L29.6291 56.0151L29.6347 56.4406L29.6459 57.2733L29.6515 57.6554L29.6598 58.3975L29.664 58.7253L29.6696 59.3516L29.6723 59.611L29.6738 59.8621V59.9737L29.6752 60.1857V60.2749L29.6738 60.9779L29.6696 61.289L29.664 61.5945L29.6598 61.7326L29.6529 62.0004L29.6487 62.1189L29.6389 62.3435L29.6333 62.4369L29.6222 62.6113L29.6166 62.6768L29.604 62.794L29.5971 62.8275L29.5831 62.8791H29.5761L28.1956 61.7054L28.311 57.7991L28.4044 54.22L28.4701 51.9339L28.5063 50.8389L28.5789 48.6839L28.6179 47.6531L28.696 45.6236L28.7378 44.6556L28.8229 42.7489L28.869 41.8408L28.961 40.054L29.0098 39.2032L29.1089 37.5322L29.1619 36.7385L29.2692 35.1791L29.325 34.4412L29.4394 32.9906L29.4994 32.3043L29.6222 30.9583L29.6863 30.3237L29.8174 29.0781L29.8858 28.4923L30.0253 27.3457L30.0978 26.8073L30.247 25.7542L30.3238 25.2605L30.4814 24.298L30.5636 23.8489L30.7296 22.9729L30.8175 22.5656L30.9933 21.772L31.0854 21.4051L31.462 20.0215L31.7353 19.1302L31.8846 18.6992L32.1873 17.8469L32.3504 17.4368L32.6838 16.6278L32.861 16.2387L33.2236 15.4715L33.4147 15.1047L33.8039 14.3808L34.0089 14.0348L34.4259 13.3555L34.6436 13.0333L35.0871 12.3987L35.3186 12.1002L35.7874 11.5115L36.0314 11.2354L36.5252 10.6956L36.7818 10.4431L37.2993 9.94935L37.5671 9.72198L38.1097 9.27846L38.3887 9.07482L38.9536 8.68145L39.2438 8.50293L39.8309 8.15979L40.1323 8.00778L40.7418 7.71627L41.0528 7.59068L41.6833 7.35218L42.0055 7.2518L42.4044 7.13316L42.6317 7.07041L42.7238 7.04816L42.894 7.00766L42.9554 6.99514L43.0641 6.97698L43.092 6.97559L43.1339 6.97976ZM25.6874 62.2793L25.3875 62.3073L24.7347 62.2988L24.3636 62.2933L23.5867 62.2849L23.1487 62.2807L22.2393 62.2723L21.7288 62.2681L21.21 62.2626L20.9351 62.2612L20.3772 62.257L20.0843 62.2542L19.4859 62.2501L19.1721 62.2472L18.5333 62.243L18.1985 62.2402L17.5165 62.2347L17.1593 62.2319L16.4326 62.2277L16.0533 62.2249L13.5537 62.204L12.76 62.197L12.3764 62.1943L11.6191 62.1858L11.255 62.1817L10.538 62.1747L10.1963 62.1705L9.52401 62.1622L9.20599 62.1579L8.58108 62.1496L8.28957 62.1454L7.71767 62.1371L7.45267 62.1343L6.93797 62.1259L6.70226 62.1217L6.24752 62.1133C6.13949 62.1288 5.98278 62.0169 6.27403 61.9752L6.46933 61.9711L6.86965 61.9627L7.08442 61.9585L7.52664 61.9501L7.76235 61.9459L8.74152 61.9278L9.27995 61.9194L10.3874 61.9027L10.9803 61.8943L12.1882 61.8776L12.8201 61.8706L14.0991 61.8553L14.7561 61.8483L16.6753 61.8288L17.8958 61.8148L18.4677 61.8078L19.5821 61.7953L20.0913 61.7898L20.592 61.7841L20.8292 61.7799L21.2923 61.7744L21.5098 61.7716L21.9339 61.7674L22.1292 61.7646L22.5085 61.7591L22.6815 61.7562L23.0148 61.752L23.1627 61.7493L23.4472 61.7451L23.5686 61.7437L23.7988 61.7395L23.8922 61.7381L24.0666 61.7354L24.1307 61.734L24.2451 61.7312L24.2785 61.7298L24.3288 61.7283L24.3302 61.7269L24.3329 61.6893L24.3357 61.6279L24.3385 61.5805L24.3427 61.4745L24.3456 61.4061L24.3525 61.2569L24.3553 61.1676L24.3622 60.9793L24.3664 60.8719L24.3748 60.646L24.3804 60.519L24.3999 59.9793L24.4111 59.6626L24.4334 58.9987L24.4473 58.6263L24.4724 57.8577L24.4878 57.4407L24.5156 56.5856L24.531 56.1323L24.5617 55.2103L24.5771 54.7305L24.6314 53.0957L24.6664 52.0426L24.6844 51.5336L24.7179 50.5265L24.7347 50.0411L24.7695 49.0786L24.7863 48.6155L24.8184 47.6977L24.8351 47.2542L24.8672 46.3796L24.8839 45.957L24.916 45.1215L24.9327 44.7184L24.9648 43.9219L24.9802 43.5369L25.0429 42.0361L25.075 41.3373L25.1392 39.9745L25.1712 39.3385L25.2354 38.0985L25.2675 37.5196L25.3345 36.3898L25.3679 35.8612L25.4362 34.8276L25.4726 34.3436L25.5437 33.3937L25.5813 32.9459L25.658 32.0686L25.6971 31.6501L25.7794 30.83L25.8213 30.4366L25.9998 28.9037L26.0988 28.1729L26.3067 26.7251L26.4238 25.9983L26.6512 24.6704L26.8143 23.8168L26.9008 23.4053L27.078 22.5921L27.1715 22.1988L27.3625 21.4247L27.4644 21.0509L27.6722 20.3116L27.7824 19.9559L28.0056 19.2529L28.1241 18.9139L28.6137 17.5916L28.8857 16.9779L29.4492 15.7784L29.7603 15.2218L30.4019 14.1338L30.7534 13.6276L31.4801 12.64L31.8762 12.1783L32.6922 11.2758L33.1344 10.8519L34.2405 9.87965L34.9867 9.30497L35.3689 9.05109L36.1402 8.56846L36.5378 8.35787L37.344 7.95893L37.7652 7.78736L38.2422 7.59911L38.4975 7.5042L38.5923 7.47074L38.7611 7.41772L38.8127 7.4052L38.8951 7.38982L38.9034 7.39825L38.8978 7.42189L38.8615 7.4484L38.7667 7.51124L38.6858 7.55582L38.5017 7.6563L38.3762 7.71905L38.1014 7.85576L37.9298 7.93659L36.8335 8.51266L36.1667 8.92698L35.8501 9.15852L35.2252 9.64393L34.9141 9.92284L34.2893 10.5087L33.9629 10.8505L33.246 11.6595L32.7828 12.2397L32.5597 12.5493L32.1161 13.1839L31.9027 13.5215L31.4815 14.2106L31.2792 14.576L30.8775 15.3195L30.6851 15.7114L30.3042 16.5107L30.1215 16.9305L29.7617 17.7827L29.5901 18.2291L29.2498 19.1371L29.0879 19.61L28.7699 20.5724L28.6179 21.0731L28.3208 22.09L28.1785 22.6186L27.9023 23.6885L27.7712 24.245L27.5146 25.3692L27.3932 25.9523L27.1575 27.1323L27.0473 27.7419L26.8325 28.9749L26.732 29.6124L26.5382 30.9011L26.449 31.5651L26.2746 32.9069L26.1951 33.5988L26.0137 35.3004L25.9133 36.3843L25.8729 36.9226L25.7989 38.0023L25.771 38.5629L25.7222 39.7053L25.7069 40.3218L25.6915 40.9467L25.6859 41.276L25.6776 41.9427L25.6748 42.2955L25.6706 43.0139V43.3947L25.672 44.1702L25.6734 44.583L25.679 45.4256L25.6845 45.8747L25.6943 46.7925L25.7013 47.2821L25.7166 48.2822L25.725 48.8164L25.7445 49.9085L25.7557 50.4915L25.7878 52.2658L25.8087 53.4193L25.8185 53.9731L25.838 55.0611L25.8464 55.5702L25.8631 56.5647L25.87 57.018L25.884 57.8925L25.8896 58.2748L25.8951 58.6486L25.8979 58.8187L25.9036 59.1507L25.905 59.2999L25.9091 59.5873L25.9105 59.7129L25.9133 59.9514L25.9147 60.0517L25.9161 60.2401V60.3126L25.9175 60.4451V60.4897L25.9148 61.7267L25.9098 62.1802L25.6874 62.2793Z" fill="black"/>
<path d="M54.8575 7.3842L54.884 7.40932L54.8184 7.44556L54.75 7.47207L54.5896 7.52926L54.4795 7.56272L54.2409 7.63252L54.0986 7.67154L53.2548 7.9282L52.7122 8.12488L52.4486 8.23509L51.9283 8.46663L51.6772 8.59492L51.1807 8.86279L50.9408 9.00924L50.4665 9.31187L50.2377 9.47649L49.7845 9.81684L49.5668 10.0009L49.1344 10.3789L48.9266 10.5812L48.5151 10.9983L48.3171 11.2214L47.9265 11.6761L47.7368 11.9189L47.3644 12.4154L47.1858 12.6776L46.8316 13.2147L46.66 13.4977L46.3238 14.0766L46.1621 14.3821L45.8413 15.0028L45.6878 15.3292L45.3837 15.9931L45.2387 16.3404L44.95 17.049L44.8119 17.4201L44.5384 18.1719L44.4074 18.5652L43.7434 20.7174L43.3334 22.2183L43.1436 23.0007L42.7768 24.5881L42.6108 25.4124L42.2872 27.0821L42.1421 27.9455L41.8646 29.6932L41.7418 30.5943L41.5089 32.4159L41.4099 33.3533L41.2229 35.2446L41.1463 36.2168L41.0054 38.1752L40.9537 39.1781L40.9119 40.1238L40.891 40.8156L40.8826 41.2019L40.8686 42.004L40.8645 42.4573L40.8603 42.9204L40.8589 43.1659L40.8575 43.6694V43.9372V44.4826V44.7741L40.8603 45.3683L40.8617 45.6836L40.8659 46.3294L40.8686 46.6725L40.8742 47.3727L40.877 47.7451L40.8854 48.5039L40.8896 48.907L40.8993 49.7286L40.9049 50.1637L40.9161 51.0523L40.9217 51.5223L40.9356 52.4805L40.9426 52.9869L40.9635 54.4501L40.9761 55.3623L40.9816 55.7877L40.9914 56.6162L40.9955 57.0012L41.0054 57.7516L41.0081 58.0975L41.0151 58.7727L41.0179 59.0823L41.0221 59.6834L41.0249 59.9569L41.0277 60.4883L40.9971 60.7282L40.9833 61.1927V61.4005L40.9819 61.8008L39.526 62.7571L39.6412 60.9905L39.69 59.0907L39.7221 57.866L39.7389 57.2732L39.7695 56.1015L39.7863 55.5338L39.817 54.4138L39.8323 53.8712L39.863 52.8L39.877 52.2811L39.9076 51.2573L39.9229 50.7621L39.9522 49.7844L39.9676 49.3115L39.9969 48.3784L40.0108 47.9264L40.0415 47.0351L40.0555 46.6042L40.0848 45.7533L40.1001 45.3418L40.1586 43.7364L40.1879 42.9859L40.248 41.5227L40.2787 40.8392L40.34 39.503L40.3707 38.8795L40.4349 37.6577L40.4683 37.0844L40.5339 35.9615L40.5688 35.4329L40.6385 34.3966L40.6761 33.9042L40.7501 32.9389L40.7891 32.4772L40.87 31.5693L40.9119 31.1298L40.997 30.2636L41.043 29.8411L41.2299 28.177L41.3359 27.354L41.5116 26.061L41.6344 25.2311L41.6986 24.8322L41.8297 24.0441L41.8994 23.6647L42.0389 22.917L42.1128 22.5558L42.4183 21.1512L42.5871 20.5012L42.9358 19.2333L43.1283 18.6447L43.5258 17.4954L43.7448 16.9612L44.1954 15.9178L44.4436 15.4296L44.9527 14.4741L45.2317 14.0237L45.8063 13.1421L46.1188 12.7222L47.1943 11.4348L47.9641 10.6593L48.3785 10.3106L49.2279 9.63823L49.6854 9.33838L50.6241 8.76231L51.129 8.50705L51.5168 8.3327L51.8293 8.20858L52.0036 8.14444L52.7401 7.89056L53.1181 7.77619L53.4947 7.66598L53.6718 7.61713L54.0177 7.52648L54.1712 7.49163L54.4627 7.42888L54.5799 7.41071L54.7905 7.38281" fill="black"/>
<path d="M47.6978 7.01562L47.7034 7.01988L47.7061 7.02823L47.6922 7.03518L47.656 7.05335L47.6225 7.06447L47.5458 7.09237L47.4928 7.10914L47.3756 7.14678L47.3002 7.16912L47.1413 7.21648L47.0465 7.24438L45.6767 7.72702L44.8022 8.12039L44.3851 8.35332L43.5636 8.84291L43.1716 9.12607L42.4002 9.71604L42.0334 10.0481L41.3122 10.7399L40.9692 11.1234L40.2968 11.9185L39.9788 12.3551L39.354 13.2548L39.0582 13.7457L38.4807 14.7542L38.2088 15.2982L37.6759 16.4169L37.4263 17.0167L36.9381 18.2468L36.7107 18.9038L36.2657 20.2485L36.0593 20.964L35.6562 22.423L35.4707 23.1971L35.1108 24.7761L34.9448 25.6102L34.624 27.3077L34.4789 28.2032L34.1973 30.0248L34.0717 30.9817L33.8276 32.9275L33.7202 33.9471L33.5654 35.5874L33.4803 36.6936L33.4454 37.2752L33.384 38.4636L33.3603 39.1121L33.3394 39.7705L33.331 40.1178L33.3143 40.8236L33.3087 41.1974L33.2975 41.959L33.2947 42.3635L33.2892 43.1906L33.2878 43.63V44.5297L33.2892 45.0095L33.2934 45.9887L33.2961 46.5131L33.306 47.5816L33.3115 48.1534L33.3254 49.321L33.3338 49.943L33.3505 51.2166L33.3618 51.8958L33.384 53.2836L33.3966 54.0229L33.4217 55.5014L33.4328 56.2072L33.4552 57.5965L33.4663 58.2465L33.4859 59.5158L33.4942 60.096L33.5026 60.6652L33.5068 60.9343L33.5138 61.4629L33.5179 61.7099L33.5249 62.1925L33.5277 62.4156L33.5332 62.848L33.5361 63.0447L33.5403 63.4255L33.5417 63.5942L32.0533 62.1939L32.0575 61.5369L32.0617 61.025L32.0659 60.7363L32.0743 60.1378L32.0799 59.8101L32.0924 59.1364L32.0994 58.7737L32.1133 58.0331L32.1231 57.6425L32.1398 56.8461L32.1496 56.4318L32.1901 54.7315L32.2138 53.8388L32.3142 50.1885L32.3714 48.4087L32.4286 46.6512L32.4565 45.8254L32.4857 45.0123L32.5011 44.6232L32.529 43.8601L32.5443 43.5017L32.6085 41.9506L32.6517 40.9505L32.6741 40.468L32.7201 39.5138L32.7438 39.0522L32.7912 38.14L32.8164 37.6992L32.8651 36.826L32.8916 36.4048L32.9433 35.5707L32.9698 35.1662L33.08 33.5859L33.1386 32.8424L33.2585 31.3875L33.324 30.7014L33.4566 29.3539L33.5277 28.7137L33.6741 27.4542L33.7536 26.8516L33.9155 25.6632L34.002 25.0899L34.2265 23.755L34.3939 22.8902L34.486 22.469L34.677 21.6363L34.7817 21.2332L34.995 20.4325L35.1122 20.0448L35.3508 19.2762L35.4791 18.9038L35.7413 18.1688L35.8808 17.813L36.1667 17.1087L36.3187 16.7697L36.6284 16.0988L36.793 15.7752L37.1263 15.1364L37.3021 14.8282L37.6606 14.2214L37.8475 13.9298L38.2296 13.3551L38.4291 13.0804L38.835 12.5378L39.0457 12.2784L39.4753 11.7678L39.6999 11.5238L40.1531 11.0453L40.3888 10.8179L40.8659 10.3716L41.1142 10.161L41.6149 9.74533L41.8744 9.55004L42.5146 9.10095L42.9693 8.81083L43.2064 8.67412L44.1759 8.14273L44.6682 7.91953L45.1606 7.70329L45.4033 7.60986L45.8831 7.42994L46.1147 7.35459L46.5722 7.21509L46.787 7.16355L47.2082 7.07142L47.4007 7.04491L47.5569 7.02545L47.6336 7.01702L47.6574 7.01562" fill="black"/>
<path d="M50.4379 7.24914L50.4462 7.27148L50.4184 7.29521L50.1026 7.34822L50.0314 7.38586L49.804 7.46816L49.6897 7.51979L49.4387 7.63L49.2782 7.69553L48.1833 8.2005L47.5221 8.57571L47.2041 8.79604L46.5722 9.26468L46.2473 9.54784L45.918 9.84074L45.7479 10.0026L45.4005 10.336L45.2192 10.5201L44.4633 11.3332L43.9932 11.8926L43.7728 12.1855L43.3418 12.7825L43.1382 13.0977L42.7378 13.7435L42.5481 14.0895L42.1729 14.7981L41.9916 15.1788L41.6332 15.9627L41.4574 16.3868L41.1086 17.2585L40.9371 17.7313L40.5912 18.7035L40.4168 19.2322L39.7585 21.4165L39.3511 22.955L39.1643 23.7626L38.803 25.4044L38.6385 26.2621L38.3232 28.0001L38.1823 28.9026L37.9117 30.7312L37.7945 31.6769L37.5728 33.5864L37.4807 34.5712L37.3077 36.5574L37.2394 37.577L37.1167 39.6331L37.0748 40.6847L37.0539 41.3431L37.0427 41.8731L37.0385 42.18L37.0316 42.8202L37.0288 43.1773L37.0246 43.9151L37.0232 44.3182L37.0219 45.1454L37.0232 45.5875L37.0246 46.4901L37.026 46.9657L37.0316 47.9337L37.0344 48.4386L37.0413 49.461L37.0469 49.9883L37.0678 52.1377L37.0832 53.2508L37.1153 55.4937L37.1348 56.6193L37.1753 58.865L37.2004 59.9571L37.2241 61.0437L37.2366 61.5737L37.187 62.6255L35.7776 63.5768L35.786 63.288L35.8027 62.677L35.8125 62.3311L35.832 61.6128L35.8418 61.2223L35.8627 60.4216L35.8725 59.9989L35.8934 59.1384L35.9046 58.6948L35.945 56.8871L35.9645 55.986L36.0468 52.4738L36.1124 50.1557L36.1486 49.0188L36.224 46.762L36.2644 45.6671L36.3495 43.5023L36.3942 42.4659L36.4401 41.4379L36.4639 40.9386L36.5113 39.9468L36.5364 39.4657L36.5852 38.5144L36.6103 38.0541L36.6606 37.1474L36.6871 36.7108L36.7387 35.8516L36.7652 35.4415L36.8181 34.6339L36.8446 34.2518L36.899 33.5L36.9255 33.147L36.98 32.4566L37.0079 32.1344L37.2032 30.0491L37.3454 28.7227L37.4236 28.0908L37.5825 26.8452L37.669 26.2524L37.8461 25.0836L37.9424 24.5284L38.139 23.4334L38.2465 22.9131L38.4641 21.8894L38.5813 21.4026L38.8211 20.4443L38.9494 19.9896L39.2131 19.0955L39.354 18.6701L39.6413 17.8346L39.7948 17.437L40.1072 16.6559L40.2745 16.2849L40.6135 15.5568L40.7949 15.2109L41.163 14.5288L41.3569 14.2052L41.7545 13.5692L41.9651 13.2665L42.3933 12.6695L42.6193 12.385L43.0782 11.8256L43.3209 11.5592L43.8132 11.0334L44.0727 10.7809L44.6976 10.1909L45.0951 9.83796L45.2876 9.67761L45.6684 9.36932L45.8567 9.22983L46.2347 8.95926L46.4258 8.83515L47.2013 8.36781L47.6281 8.16139L48.0633 7.95914L48.2963 7.86015L48.7732 7.66485L49.0327 7.56725L49.4749 7.40819L49.7162 7.33006L49.8096 7.30355L49.9756 7.26035L50.03 7.25201L50.4239 7.24219" fill="black"/>
</svg>
