<svg width="1440" height="659" viewBox="0 0 1440 659" fill="none" xmlns="http://www.w3.org/2000/svg">
<path fillRule="evenodd" clipRule="evenodd" d="M-14 18.5105C11.4025 5.5589 46.9644 -5.09796 125.293 13.47C193.929 29.7401 215.452 20.7506 235.564 12.3508C238.818 10.9917 242.035 9.64808 245.409 8.42937C269.634 -0.321727 335.848 -2.49218 390.758 18.5105C423.563 31.058 501.284 18.5105 522.481 13.4699C564.001 3.59646 630.87 -6.31989 689.532 8.42937C751.858 24.0997 784.743 17.3487 814.273 11.2865C819.177 10.2799 823.988 9.29221 828.826 8.42937C830.6 8.11294 832.407 7.78399 834.25 7.44862C861.758 2.44165 897.131 -3.99698 947.932 8.42937C1002.85 21.8642 1017.72 18.1942 1045.78 11.2699C1051.49 9.85905 1057.76 8.31313 1065.02 6.74926C1111.09 -3.17412 1120.26 -1.23402 1157.34 6.61149C1166.57 8.56289 1177.52 10.8796 1191.19 13.47C1255.48 25.6487 1284.19 19.228 1325.89 9.90417C1328.06 9.41968 1330.26 8.92734 1332.5 8.42937C1368.84 0.364503 1376.91 1.70842 1438.99 13.47V321.879H1440V640.49C1414.58 653.441 1378.99 664.098 1300.61 645.53C1231.93 629.26 1210.39 638.249 1190.26 646.649C1187.01 648.008 1183.79 649.352 1180.41 650.571C1156.17 659.322 1089.91 661.492 1034.96 640.49C1002.13 627.942 924.358 640.49 903.146 645.53C861.598 655.404 794.682 665.32 735.979 650.571C673.61 634.9 640.702 641.651 611.152 647.714C606.245 648.72 601.43 649.708 596.589 650.571C594.814 650.887 593.005 651.216 591.161 651.552C563.634 656.558 528.236 662.997 477.4 650.571C422.439 637.136 407.56 640.806 379.486 647.73C373.766 649.141 367.498 650.687 360.232 652.251C314.126 662.174 304.95 660.234 267.843 652.389C258.614 650.437 247.656 648.12 233.973 645.53C169.641 633.351 140.906 639.772 99.1797 649.096C97.0114 649.58 94.808 650.073 92.5627 650.571C56.2001 658.636 48.1195 657.292 -14 645.53V337.121V321.879V18.5105Z" fill="black"/>

</svg>
