<svg width="885" height="280" viewBox="0 0 885 280" fill="none" xmlns="http://www.w3.org/2000/svg">
<path d="M117.81 126.811L119.686 125.528L115.364 125.889L117.091 124.619C119.034 124.016 121.86 124.22 123.062 123.262C123.069 122.699 120.904 123.198 120.237 122.96C119.629 122.693 119.11 122.4 118.685 122.087C119.743 121.759 120.936 121.493 122.192 121.303C123.899 121.102 125.526 120.754 126.893 120.298C129.731 119.497 132.422 118.562 135.485 117.62L134.082 116.71L138.112 115.76C138.559 115.723 139.01 115.416 139.457 115.403C143.179 115.311 144.456 114.323 145.956 113.365C146.257 113.145 146.634 112.932 147.08 112.733C151.709 111.537 156.249 111.622 160.573 111.04C161.401 110.978 162.214 110.977 162.955 111.036C164.544 111.106 166.263 111.029 167.956 110.815C169.649 110.6 171.261 110.255 172.645 109.809C175.709 108.834 179.281 108.088 183.017 107.643C184.135 107.532 185.23 107.346 186.232 107.098C187.235 106.85 188.123 106.544 188.84 106.201L191.446 106.154C192.39 105.545 193.652 104.977 195.155 104.485C196.658 103.993 198.37 103.587 200.188 103.292C202.127 102.983 204.067 102.576 206.081 102.261C210.226 101.565 214.197 100.688 217.872 99.6578C223.396 98.2895 228.772 96.8847 234.37 95.5838C237.853 94.7105 241.22 93.7745 244.451 92.7814C248.339 91.6469 252.637 90.7149 257.138 90.0302C257.129 90.7163 255.189 91.1235 253.92 91.4991C249.812 92.6753 245.557 93.7169 241.301 94.8321C239.387 95.3466 237.541 95.8935 235.773 96.4699C232.799 97.3753 229.62 98.1913 226.292 98.9038C221.078 100.174 216.083 101.567 211.356 103.067C210.992 103.208 210.666 103.359 210.383 103.516C210.336 103.589 210.345 103.661 210.408 103.724C210.471 103.787 210.586 103.839 210.743 103.875C210.899 103.911 211.091 103.93 211.301 103.93C211.511 103.93 211.732 103.911 211.941 103.875C213.953 103.706 216.114 103.526 217.906 103.033C217.976 103.016 218.052 103.004 218.13 102.998C218.207 102.991 218.283 102.99 218.353 102.995C222.6 102.64 225.814 101.465 228.95 100.639C234.204 99.4197 239.208 98.0494 243.885 96.5494C244.594 96.3289 245.375 96.1397 246.2 95.9885C251.233 94.8444 255.837 93.4477 259.795 91.8638C261.44 91.261 262.936 90.5972 264.73 90.0309C265.831 89.6718 266.757 89.2572 267.453 88.8119C268.149 88.3666 268.6 87.8999 268.78 87.4398C269.597 87.3957 270.42 87.3268 271.238 87.234C271.726 87.1747 272.175 87.0587 272.494 86.9093C272.814 86.7599 272.98 86.5882 272.96 86.4289C272.966 85.9634 271.848 86.0815 270.879 86.1871C271.401 85.9238 272.004 85.6759 272.674 85.4493C276.445 84.1594 280.557 82.9932 284.922 81.9759C288.354 81.3214 290.898 80.1782 294.552 79.6275C294.999 79.5901 295.3 79.3446 295.674 79.1909C296.621 78.7023 297.858 78.2712 299.275 77.935C300.693 77.5987 302.249 77.3675 303.81 77.2613C305.317 75.7399 309.561 75.6048 312.473 74.798C313.513 75.0047 312.468 75.239 312.466 75.386C312.464 75.533 312.466 75.386 312.094 75.4172C309.432 77.0078 305.538 78.3953 300.956 79.385C300.133 79.6453 299.358 79.923 298.639 80.2155C297.547 80.6524 296.284 81.0397 294.903 81.3605C293.407 81.7477 292.065 82.2083 290.942 82.7202C290.27 82.9289 289.724 83.18 289.356 83.4504C288.989 83.7208 288.811 84.0017 288.84 84.267C289.349 84.3186 289.902 84.3385 290.477 84.3258C293.417 84.0651 296.239 83.4534 298.387 82.6109C302.126 81.1474 306.755 79.9765 310.79 78.6105C313.526 77.7115 316.482 76.8974 319.602 76.1837C319.602 76.1837 319.599 76.4533 319.598 76.4778C319.992 76.4706 320.397 76.4366 320.791 76.3779C320.791 76.3779 320.791 76.3779 320.792 76.2554C320.592 76.2011 320.334 76.1718 320.049 76.1708L319.08 76.2519C319.678 76.006 320.204 75.6683 320.875 75.5631C322.281 75.3176 323.596 74.9878 324.739 74.5934C325.882 74.199 326.83 73.7482 327.526 73.2683C328.797 72.5342 330.453 71.8619 332.388 71.2946C333.851 70.7986 335.249 70.2811 336.575 69.7446C336.575 69.7446 336.578 69.4506 337.178 69.1067C336.513 69.1234 335.832 69.1804 335.166 69.2751C332.331 69.8797 329.495 70.5088 326.733 71.1807C325.73 71.4745 324.802 71.7985 323.967 72.1466C321.615 72.9857 318.899 73.6957 315.978 74.2352C315.978 74.2352 315.382 74.2851 315.084 74.3101C315.69 73.4761 318.595 73.2083 319.572 72.4657C320.244 72.2625 321.439 71.9421 321.366 71.8504C321.23 71.7398 321.179 71.6137 321.215 71.4811C321.251 71.3486 321.373 71.2129 321.574 71.0838C321.775 70.9547 322.048 70.8354 322.376 70.7343C322.703 70.6333 323.075 70.5532 323.466 70.4996C326.671 69.8673 329.619 69.0458 332.129 68.0853C333.1 67.7836 334.219 67.543 335.19 67.2659C335.789 67.1112 336.322 66.9254 336.76 66.7184C338.94 65.5216 342.06 64.5045 345.652 63.8198C347.372 63.439 348.943 62.9671 350.283 62.4284C351.255 62.1023 351.773 62.3037 352.518 62.2413L355.577 61.6425L351.911 63.2468C353.019 63.9372 353.762 64.0464 355.106 63.6891C357.068 63.1708 358.963 62.6197 360.783 62.0388C362.128 61.608 363.176 61.0551 365.114 60.8439C365.455 60.8017 365.771 60.7233 366.01 60.622C368.045 59.6303 370.594 58.7489 373.484 58.038C374.762 56.9764 377.444 56.7763 379.903 56.5214C380.507 55.8344 379.09 56.051 378.197 56.0278C380.139 55.4491 382.082 54.8214 384.098 54.2609C384.691 54.0483 385.39 53.8741 386.14 53.7518C386.891 53.6295 387.672 53.5625 388.423 53.556C388.8 53.586 389.235 53.561 389.638 53.4863C390.04 53.4115 390.38 53.2928 390.587 53.1546C391.561 52.6324 393.277 52.2929 394.028 51.6915C394.308 51.5195 394.74 51.3722 395.246 51.276C395.751 51.1798 396.298 51.1411 396.788 51.1666C396.324 51.3684 395.922 51.583 395.59 51.8055C394.39 52.5669 395.055 53.0008 396.986 53.3286C399.527 52.4794 402.141 51.673 404.46 50.7691C405.735 50.2107 407.366 49.7477 409.172 49.4322C410.977 49.1168 412.884 48.9613 414.678 48.9833C415.331 49.0033 416.047 48.9346 416.683 48.7906C417.319 48.6466 417.829 48.438 418.111 48.2063C418.265 47.9925 418.267 47.7822 418.118 47.5937L416.33 47.7435C416.33 47.7435 416.333 47.5229 416.333 47.4739L418.725 46.6863C419.995 46.2862 421.339 45.9289 422.534 45.535C424.263 44.8695 426.297 44.2995 428.509 43.8598C430.557 43.4783 432.553 43.0493 434.479 42.5767C436.345 42.1267 437.545 41.3163 439.265 40.7073C440.565 40.2469 442.027 39.8435 443.596 39.5124C446.308 38.9472 448.723 38.1896 450.619 37.3088C453.365 37.9845 454.557 37.8602 456.579 36.8097L457.552 36.3856L457.921 36.5994L458.669 36.292C460.09 35.7814 461.51 35.2709 463.005 34.7785C465.133 34.2531 467.496 33.8949 469.865 33.7391C470.312 33.7016 470.98 33.8415 471.425 33.9756C471.87 34.1097 472.906 34.6104 473.647 34.9155C473.119 35.4737 472.517 36.0382 472.138 36.6084C472.109 36.6946 472.14 36.7767 472.229 36.8481C472.318 36.9196 472.462 36.9783 472.65 37.0198C472.838 37.0612 473.064 37.0841 473.31 37.0866C473.556 37.0891 473.816 37.0712 474.068 37.0343C474.562 36.9702 475.041 36.8805 475.485 36.7687C477.65 36.1372 479.699 35.458 481.613 34.738C482.276 34.3618 483.246 34.0415 484.367 33.8279C485.489 33.6143 486.699 33.5195 487.805 33.5587C490.287 32.5471 493.269 31.6795 496.544 31.0156C499.834 29.761 504.012 28.8971 507.006 27.4715C507.003 27.7165 507.447 27.9976 507.967 28.0764C508.785 28.1873 509.69 28.2439 510.644 28.2439L517.436 26.6961C517.77 26.892 518.166 27.0718 518.62 27.2333C518.941 27.3729 519.446 27.4492 520.03 27.446C520.614 27.4429 521.23 27.3605 521.747 27.2163C523.091 26.8835 524.139 26.3551 525.851 26.3096C523.564 27.4931 520.281 28.462 516.589 29.0434C513.15 29.6838 509.9 30.4847 506.959 31.4163C505.988 31.7179 504.717 32.1425 504.49 32.4798C504.033 33.3748 502.241 33.8185 500.151 34.3362C498.497 34.7039 497.03 35.1814 495.872 35.7295C494.714 36.2775 493.897 36.8805 493.489 37.4887C493.483 37.9542 493.927 38.2108 495.418 38.0125L501.606 37.1517C502.433 36.753 503.208 36.3449 503.928 35.9292C505.161 35.2904 506.752 34.7217 508.577 34.2674C510.403 33.8131 512.414 33.4854 514.454 33.3099C515.497 33.2226 516.54 33.1352 517.214 32.8096C517.797 32.4956 518.323 32.1734 518.789 31.8455C518.858 31.7018 518.86 31.5612 518.794 31.4289C519.189 31.376 519.591 31.3424 519.986 31.3291C523.258 31.5937 525.499 30.8675 527.446 29.9212C527.97 29.657 528.345 29.3808 528.87 29.0921C529.394 28.8034 529.546 28.5949 530.068 28.4777C534.247 27.5893 535.011 25.9343 538.447 24.9123C538.598 24.8096 538.678 24.7019 538.679 24.5991C538.68 24.4963 538.603 24.4018 538.454 24.3242C538.18 24.2978 537.873 24.2977 537.561 24.3239C537.248 24.3501 536.941 24.4017 536.666 24.4739C535.04 24.8029 533.666 25.29 532.779 25.852C532.126 26.1727 531.426 26.4847 530.684 26.7862L526.674 25.996C530.045 25.1253 533.182 24.1391 536.013 23.06C536.612 22.765 537.73 22.598 538.626 22.3516L545.199 20.4795C546.543 20.0731 547.593 19.4223 549.676 19.5171C549.676 19.5171 550.945 19.2395 551.245 19.0431C551.545 18.8466 552.823 17.8095 553.575 17.159C554.619 16.9492 556.11 16.7999 556.709 16.505C557.733 15.9208 558.589 15.3156 559.261 14.7002L563.363 13.9896C563.505 14.4578 563.499 14.9421 563.346 15.4352C563.161 15.922 563.319 16.3874 563.806 16.7934C564.293 17.1993 565.094 17.5343 566.146 17.7708L570.892 19.2827C571.584 19.2665 572.298 19.1774 572.939 19.0274C573.58 18.8774 574.116 18.6738 574.474 18.4442C576.048 17.6027 577.844 16.7669 579.417 15.9253C581.727 15.7319 581.418 16.6879 583.202 16.8812L588.64 16.4258C589.747 17.2388 590.855 18.0028 588.609 19.0966C588.159 19.3055 588.602 19.6111 588.227 19.9118C590.308 20.1292 592.397 19.734 594.408 19.639C595.25 19.7602 595.979 19.9397 596.56 20.1687C597.245 20.5727 598.456 20.8248 599.932 20.8707C601.408 20.9166 603.029 20.7526 604.447 20.414C606.866 19.9802 609.389 19.6778 611.9 19.5206C612.76 19.4704 613.624 19.359 614.434 19.194C615.245 19.029 615.984 18.8142 616.601 18.564C618.828 17.7653 620.64 16.8546 621.918 15.8914C623.204 15.0106 625.055 14.1993 627.305 13.531C631.403 13.1879 632.581 14.2397 635.256 14.6521L631.294 16.0364C631.288 16.5264 631.729 17.0035 630.086 17.5083C628.442 18.0131 629.408 18.177 630.075 18.4394C630.33 18.5965 630.765 18.7039 631.308 18.7432C631.85 18.7826 632.465 18.7516 633.049 18.6554L636.628 18.1354C637.902 17.9653 639.099 17.6876 640.088 17.3327C641.077 16.9778 641.82 16.5596 642.235 16.1239C642.728 15.6788 643.468 15.2504 644.408 14.8649C645.572 14.2629 646.484 13.6247 647.11 12.9741L652.108 12.0661C652.182 11.5867 652.752 11.0881 653.72 10.6547C654.688 10.2213 655.995 9.87966 657.421 9.6875L660.778 9.03923C664.508 8.31076 665.257 7.92984 665.945 6.42807L660.967 5.69446C661.423 4.94647 661.877 4.27199 662.332 3.5975C661.039 3.24685 659.398 3.04644 657.575 3.01668C655.85 2.91145 654.087 2.83848 652.293 2.79806C650.358 2.78874 648.347 2.88368 645.965 2.93631C645.519 2.85123 644.852 2.66236 644.034 2.53497C643.22 2.41762 642.376 2.31667 641.507 2.23254C641.513 1.74249 641.519 1.30145 641.077 0.873343C642.474 0.615693 643.953 0.467319 645.383 0.441624C646.813 0.415925 648.147 0.513702 649.266 0.726137C649.456 0.766627 649.68 0.790132 649.924 0.795048C650.168 0.799959 650.426 0.786165 650.68 0.754612C653.142 0.32822 654.477 0.632477 655.886 1.07749C656.794 1.24616 657.912 1.29799 659.085 1.22577C661.32 1.03861 663.554 0.998455 665.714 0.891043C666.379 0.872303 667.059 0.81537 667.725 0.722607C669.918 0.404308 672.167 0.216035 674.356 0.167359C675.058 0.109478 675.748 0.107701 676.369 0.162171C676.989 0.21664 677.523 0.325785 677.925 0.480473C677.516 0.916644 677.359 1.35447 677.463 1.76751C677.46 2.06154 679.096 2.1448 679.913 2.3212C680.729 2.4976 679.312 2.73864 678.864 2.92309C676.995 3.5936 676.694 3.86358 678.102 4.3821C678.567 4.53817 678.904 4.73436 679.094 4.95851C679.283 5.18266 679.32 5.42998 679.203 5.68513C679.192 6.59171 678.585 7.52369 678.276 8.50423C679.315 8.75991 680.951 8.8677 681.316 9.47357C681.438 9.59504 681.648 9.6985 681.93 9.77646C682.212 9.85442 682.56 9.90495 682.948 9.92437C683.951 9.91423 684.889 9.98455 685.687 10.1299C686.486 10.2753 687.124 10.4918 687.553 10.7627C687.703 10.8832 688.001 10.9675 688.387 10.9987C688.774 11.03 689.219 11.0058 689.635 10.931C690.132 10.8434 690.557 10.7008 690.823 10.5328C691.088 10.3648 691.173 10.1843 691.06 10.0284C690.969 9.69761 690.799 9.37634 690.55 9.0675C690.554 8.79797 690.557 8.52845 690.114 8.22285C691.587 7.92263 693.178 7.74838 694.713 7.71905C696.249 7.68973 697.671 7.80644 698.824 8.0565C700.087 8.29347 701.274 8.58567 702.685 8.88367C702.675 9.71674 702.675 9.71675 705.646 10.2513L719.384 6.65316L722.436 6.6669C725.264 6.62585 725.863 6.37992 727.362 5.47108L728.338 4.75294C730.797 4.54707 733.628 4.30999 734.762 2.89329C735.426 3.37619 735.797 3.49201 735.721 3.62076C735.327 4.76483 734.383 5.92703 732.926 7.06136C732.55 7.33758 732.323 7.65033 731.873 7.93278C730.52 9.15442 730.505 10.3903 731.832 11.3876C732.469 11.8133 733.317 12.1876 734.349 12.4986C733.356 13.6919 731.915 14.8745 730.065 16.015C728.483 16.9446 727.244 17.9133 726.383 18.8934C725.633 19.8447 724.357 20.7833 722.629 21.6555C721.744 22.0733 721.148 22.5367 720.901 22.9996C721.092 23.982 721.656 24.9213 722.579 25.7964C722.792 26.0842 723.217 26.3336 723.822 26.525C724.426 26.7164 725.194 26.8447 726.064 26.8998C726.064 26.8998 726.509 27.0094 726.732 27.0887C727.242 28.1908 727 29.3797 726.02 30.5751C725.89 30.8679 725.529 31.1634 724.975 31.4297C724.421 31.6961 723.695 31.9232 722.876 32.0867C721.16 32.4752 719.591 32.9493 717.948 33.3805C716.17 33.8194 714.661 34.3875 713.579 35.0251C712.497 35.6628 711.883 36.3463 711.802 37.0039C711.836 37.1722 711.834 37.3441 711.795 37.5184C711.77 37.6101 711.769 37.7003 711.792 37.788L716.101 38.5042L712.131 40.5745C712.121 41.4076 714.282 41.2267 715.47 41.4699L714.943 41.9791C714.193 42.409 713.002 42.4108 711.959 42.5227L710.916 42.61L710.911 43.002C710.456 43.6765 708.073 43.8271 707.321 44.4531C706.569 45.079 707.311 45.2861 708.726 45.2656C709.715 45.2699 710.752 45.1953 711.759 45.0473C712.767 44.8994 713.718 44.682 714.542 44.4115C715.023 44.2184 715.406 44.0032 715.665 43.7789C717.237 42.6772 719.016 41.5957 720.989 40.5427C722.485 39.6834 724.45 38.9006 726.747 38.2491C727.407 38.0126 728.239 37.8435 729.098 37.7717C729.956 37.6998 730.786 37.7297 731.441 37.8561L732.636 37.5358C732.636 37.5358 733.379 37.6449 733.304 37.7247C733.145 38.789 734.021 39.7542 735.801 40.4773L734.605 40.9691C732.813 41.4129 734.148 41.7661 733.994 42.1952C732.725 42.5217 731.011 42.7387 730.557 43.3642L729.661 43.6106L730.033 43.5794L730.409 43.3032L732.268 43.4412C731.519 43.7977 730.994 44.1108 730.321 44.3875C729.955 44.5592 729.68 44.746 729.511 44.9368C729.343 45.1276 729.284 45.3184 729.34 45.4977C729.429 45.7728 729.296 46.0695 728.953 46.3595C728.611 46.6495 728.071 46.9232 727.385 47.1545C726.563 47.4192 726.186 47.8669 725.736 48.1249L728.402 49.2724C728.402 49.2724 727.284 49.366 727.953 49.5058L727.956 49.2608L729.369 49.3138C730.41 49.4225 731.081 49.3173 731.533 48.8634C731.985 48.4094 731.98 48.8259 732.206 48.6357C732.202 48.9542 731.676 49.3409 731.226 49.6724C730.685 49.9915 730.057 50.2983 729.354 50.5879C731.056 51.449 731.13 51.4673 729.332 52.4011C727.535 53.3349 728.35 53.6338 726.78 54.2058C725.21 54.7779 727.291 55.0687 728.409 54.9016C729.234 54.7637 730.094 54.6824 730.929 54.6631C731.764 54.6439 732.556 54.6872 733.249 54.7901L733.236 55.8682C732.742 55.9345 732.239 55.9766 731.746 55.993C730.034 55.9405 728.472 55.8755 727.198 56.6186L728.085 57.1563L723.159 58.2296C723.458 58.7474 724.387 59.1523 725.751 59.3589C725.672 59.7322 725.668 60.1005 725.738 60.4615C725.734 60.731 725.213 60.7257 724.914 60.8486C723.83 61.2339 722.982 61.6822 722.444 62.1541C721.906 62.6259 721.695 63.1069 721.83 63.5546C721.825 63.9711 723.758 64.2255 724.804 63.8686C727.46 63.1173 730.398 62.514 733.459 62.0913C735.251 61.5986 735.19 60.5267 738.319 60.2892C738.521 60.7296 738.264 61.2182 737.587 61.6812C736.91 62.1441 735.85 62.5563 734.566 62.8553C735.599 63.6501 739.63 62.6761 740.139 63.686C739.132 63.9195 738.026 64.0726 736.928 64.1301C735.831 64.1876 734.781 64.1476 733.883 64.0141C733.685 63.9737 733.447 63.9541 733.19 63.957C732.933 63.96 732.666 63.9855 732.413 64.031C732.16 64.0766 731.929 64.1409 731.743 64.2178C731.557 64.2948 731.42 64.3819 731.346 64.4712C732.014 64.6846 732.755 64.9407 733.571 65.1416C734.388 65.3425 734.61 65.4708 735.131 65.4026C739.08 65.072 741.302 66.0119 744.801 65.9882C745.695 65.9134 745.986 66.4765 745.239 66.6369C744.528 66.7861 743.907 66.991 743.444 67.2286C742.981 67.4662 742.695 67.7272 742.618 67.9823C742.16 68.3957 741.555 68.8002 740.817 69.1856C744.571 69.6876 748.898 69.8138 753.392 69.5525C754.246 69.5116 755.108 69.3793 755.853 69.1751C758.178 68.4464 760.684 67.7931 763.319 67.2281C764.247 67.0082 765.084 66.7386 765.785 66.4342C768.103 65.5057 770.115 65.3127 772.192 65.8976L775.605 66.7868C775.602 67.1053 775.224 67.5775 774.994 68.1353L777.522 68.3887L793.838 60.8542L797.919 61.9077L802.777 60.2525C803.171 60.1961 803.575 60.1623 803.968 60.1527C805.156 60.4694 806.119 60.8294 807.381 61.0908C808.643 61.3523 810.585 60.8226 812.145 61.1081C813.704 61.3937 815.049 60.9873 816.836 60.8866C817.164 61.3839 817.157 61.9261 816.817 62.4792C816.811 62.9938 816.06 63.5462 816.054 64.0363C816.211 64.4804 816.019 64.9598 815.493 65.4313C814.967 65.9027 814.126 66.3512 813.045 66.736C810.281 68.6542 806.801 70.4953 802.708 72.2033C802.347 72.3475 802.06 72.5085 801.866 72.6763C801.672 72.8442 801.575 73.0152 801.58 73.179C801.723 73.6131 801.56 74.078 801.104 74.5397C800.647 75.0014 799.909 75.4483 798.943 75.8476C798.684 75.9481 798.501 76.0656 798.418 76.1852C798.058 76.3585 797.817 76.5498 797.717 76.7406C797.616 76.9314 797.661 77.1152 797.847 77.2745C798.032 77.4337 798.351 77.5628 798.774 77.6495C799.197 77.7361 799.708 77.7772 800.26 77.7689C801.067 77.7809 801.887 77.7777 802.716 77.7591C802.714 77.9061 801.967 78.1645 802.115 78.25C802.533 78.5399 802.715 78.8774 802.646 79.2358C802.577 79.5942 802.259 79.9636 801.718 80.3149L806.757 82.1449C809.359 81.8006 812.008 81.7704 814.202 82.06C814.25 82.2051 814.178 82.362 813.993 82.5149C813.809 82.6679 813.518 82.8115 813.149 82.9314C812.177 83.3066 811.279 83.7245 810.232 84.1304C809.595 84.388 809.088 84.6742 808.739 84.9723C808.391 85.2704 808.208 85.5745 808.202 85.8669L810.951 86.2731C810.275 86.7948 809.75 87.108 809.299 87.4395C809.699 87.7128 810.309 87.9339 811.082 88.0857C811.855 88.2374 812.769 88.3158 813.755 88.3148C814.014 88.2971 814.272 88.2623 814.516 88.2125C814.759 88.1627 814.983 88.0988 815.172 88.0247C816.896 87.0482 819.277 87.0691 821.585 87.0717C823.892 87.0743 825.157 87.1152 826.869 87.1433L829.856 86.2812C830.683 86.2892 831.443 86.3654 832.075 86.5038C832.706 86.6421 833.192 86.8388 833.494 87.0781C833.487 87.6171 831.997 87.7909 831.174 88.1046C829.281 89.0333 826.646 89.7894 823.705 90.2476C822.96 90.3099 822.286 90.6601 821.614 90.8878C820.172 91.4073 818.799 91.9472 817.501 92.505C816.658 92.9095 815.882 93.326 815.178 93.752C815.17 94.438 818.526 93.9123 816.804 94.7908C817.474 94.7347 817.77 94.8568 818.07 94.6848C820.26 94.4409 822.356 94.0024 824.114 93.4199C827.478 92.2694 831.417 91.3441 835.609 90.7195C840.125 90.018 844.347 88.9933 847.926 87.73C849.302 87.2898 850.884 86.9396 852.553 86.7061C854.54 86.4844 856.471 86.1309 858.222 85.6684C858.794 85.4918 859.45 85.3543 860.137 85.267C860.823 85.1798 861.521 85.1453 862.173 85.1663C862.171 85.3378 861.646 85.6265 861.795 85.663C863.946 86.2661 865.051 87.2507 868.173 87.5767C870.184 87.4083 872.494 87.2148 873.547 86.2699C874.601 85.325 874.009 84.9829 871.115 84.3196C871.639 84.1323 872.299 83.9985 872.98 83.9415C873.661 83.8845 874.319 83.9079 874.84 84.0077L877.291 84.4144L879.519 84.8398C879.512 85.4033 879.507 85.8444 879.501 86.3099C879.424 86.8268 879.835 87.2974 880.676 87.6557C881.174 87.8394 881.619 88.0393 882.009 88.254C883.586 89.1064 884.295 90.1573 884.057 91.2891C883.456 92.9974 882.414 94.7227 880.943 96.4453C879.36 98.1689 878.743 99.9095 877.532 101.626C876.893 102.436 876.062 103.242 875.047 104.037C873.167 105.688 871.063 107.357 869.182 109.032C867.301 110.708 865.05 112.193 862.873 113.771C859.554 115.874 855.9 117.937 851.932 119.95C849.533 121.374 847.06 122.805 844.884 124.26C842.302 125.941 839.156 127.554 835.523 129.059C832.347 130.492 829.582 132.004 827.281 133.567C827.041 133.734 826.864 133.905 826.754 134.076C826.542 135 825.433 135.953 823.596 136.789C823.784 136.981 824.005 137.166 824.259 137.345C824.612 137.542 824.75 137.787 824.654 138.048C824.558 138.309 824.233 138.575 823.721 138.81C822.253 139.483 821.086 140.21 820.271 140.959C819.955 141.182 819.789 141.414 819.787 141.636C819.784 141.858 819.945 142.063 820.256 142.233C820.542 142.419 820.63 142.645 820.508 142.882C820.385 143.119 820.059 143.357 819.57 143.563C818.351 144.207 817.026 144.833 815.603 145.438C812.579 146.735 808.944 147.872 804.919 148.78C804.472 148.817 804.097 149.094 803.575 149.137C800.687 149.646 798.093 150.399 796.106 151.305C793.714 152.166 791.174 152.942 788.633 153.791C784.932 154.919 781.586 156.179 778.689 157.536C775.108 158.228 773.381 159.523 770.467 160.452C767.795 161.369 765.294 162.339 762.989 163.355C759.249 164.916 755.509 166.429 751.843 168.033C748.344 169.348 745.183 170.753 742.415 172.225C741.365 172.827 739.204 173.081 738.599 173.842C737.995 174.602 736.427 175.027 735.229 175.593L731.413 177.258C730.766 177.573 730.039 177.872 729.244 178.15C725.583 179.338 723.257 180.83 719.894 182.042L719.521 182.073C713.793 185.004 707.045 187.744 699.476 190.213C695.139 191.923 690.283 193.431 685.647 195.141C684.67 195.957 681.839 196.218 680.563 197.084C679.287 197.95 676.9 198.394 675.106 199.034C673.312 199.674 671.592 200.405 669.649 201.009C667.965 201.54 666.601 202.176 665.682 202.858C663.514 204.191 660.754 205.441 657.525 206.552C653.265 208.059 649.3 209.689 644.893 210.988C645.092 211.401 644.938 211.853 644.449 212.298C643.96 212.744 643.152 213.166 642.109 213.522C637.475 215.158 633.36 216.923 628.651 218.541L627.381 218.941L613.258 223.648C609.447 224.897 605.785 226.134 601.899 227.414C600.334 227.545 600.476 228.121 599.432 228.331C599.062 228.141 598.69 228.123 598.24 228.43L598.235 228.798L582.166 234.329C575.922 236.645 569.278 238.838 562.289 240.889C560.651 241.439 559.148 242.033 557.802 242.66C556.522 243.137 555.175 243.593 553.767 244.026C551.84 244.539 549.971 245.079 548.165 245.645C543.457 247.264 538.452 248.76 533.223 250.299C527.995 251.838 524.108 253.241 519.476 254.681C516.338 255.654 513.201 256.577 509.915 257.464C508.347 257.889 506.334 258.156 504.692 258.538C503.05 258.92 502.527 259.087 502.375 259.344C501.845 260.098 499.982 260.303 498.563 260.691C495.8 261.461 495.354 261.401 494.177 260.251L497.395 258.757C498.173 258.357 499.2 258.008 500.376 257.742C501.553 257.476 502.84 257.303 504.112 257.24C504.617 257.226 505.133 257.178 505.632 257.098C506.131 257.019 506.603 256.909 507.02 256.777C510.383 255.638 513.673 254.433 516.887 253.282L517.337 253.049L516.979 251.806C516.511 251.82 516.033 251.86 515.564 251.924L498.988 256.25C495.181 257.229 491.152 258.007 487.419 258.981C483.686 259.954 481.67 260.466 478.758 261.175C477.521 261.446 476.25 261.692 474.954 261.909C474.988 261.768 474.99 261.629 474.959 261.493C474.961 261.272 474.965 260.978 474.37 260.93C473.699 260.809 472.849 260.793 471.989 260.885C471.195 261.016 470.438 261.187 469.75 261.39C466.407 262.327 462.421 262.862 458.642 262.884L457.661 263.969C452.362 265.196 446.988 266.454 441.464 267.773C440.35 268.01 439.151 268.169 437.96 268.238C436.694 268.344 435.431 268.132 434.09 268.219C432.791 268.388 431.515 268.601 430.286 268.856C430.552 268.573 430.931 268.293 431.413 268.027C431.908 267.832 432.241 267.602 432.364 267.372C432.487 267.141 432.394 266.922 432.098 266.746C431.581 266.447 431.287 266.104 432.11 265.791C432.854 265.451 433.343 265.07 433.519 264.691C433.695 264.312 433.55 263.951 433.102 263.651C432.888 263.461 432.716 263.263 432.589 263.058L432.216 263.089C430.807 262.62 428.421 263.04 426.562 262.877C425.723 262.924 424.884 263.063 424.175 263.273C422.31 263.698 420.517 264.191 418.577 264.598C417.652 264.796 416.663 264.937 415.669 265.013C414.254 265.132 414.105 265.144 412.998 264.307C414.197 263.951 415.091 263.493 415.531 263.01C415.971 262.527 415.929 262.049 415.412 261.657C414.082 260.862 412.677 260.025 407.981 260.639C409.42 260.145 410.793 259.629 412.093 259.095C412.474 258.949 412.74 258.776 412.854 258.601C412.969 258.426 412.927 258.257 412.735 258.116C412.542 257.975 412.208 257.869 411.777 257.812C411.345 257.756 410.838 257.751 410.322 257.799C407.777 257.913 405.195 258.265 402.867 258.815C400.925 259.345 399.206 259.93 396.965 260.631L394.134 260.868C394.136 260.721 393.69 260.661 393.766 260.556C394.223 259.661 394.754 258.76 395.287 257.785C393.943 257.771 392.736 257.624 391.805 257.36C390.873 257.096 390.255 256.726 390.02 256.293C389.911 256.174 389.888 256.042 389.954 255.905C390.02 255.769 390.173 255.631 390.402 255.502C391.07 255.194 391.554 254.855 391.816 254.51C392.079 254.166 392.112 253.825 391.914 253.515L389.465 252.912C382.993 253.966 376.711 255.239 370.738 256.708L365.362 258.088C364.62 257.955 364.771 257.746 365.369 257.549C365.966 257.352 367.684 256.915 368.878 256.594C369.917 256.34 370.808 256.013 371.464 255.645C372.121 255.277 372.521 254.881 372.625 254.494L370.403 253.627C370.406 253.333 370.411 252.917 371.382 252.64C372.03 252.402 372.473 252.116 372.638 251.827C372.804 251.537 372.683 251.262 372.294 251.046C372.18 250.837 372.183 250.613 372.302 250.384C373.722 249.923 375.141 249.485 376.412 249.012C377.007 248.8 377.489 248.558 377.826 248.302C378.163 248.046 378.347 247.781 378.365 247.527C378.342 247.291 378.149 247.075 377.803 246.895C377.456 246.716 376.964 246.579 376.368 246.494C374.246 246.825 372.393 247.402 371.213 248.101C370.832 248.478 370.143 248.835 369.236 249.125C368.329 249.415 367.247 249.624 366.132 249.726C364.855 249.84 363.626 250.1 362.667 250.459C361.708 250.817 361.081 251.251 360.899 251.682C359.63 251.935 358.511 252.175 357.392 252.367C356.069 252.581 354.855 252.903 353.883 253.297C352.304 253.856 350.573 254.362 348.729 254.806C343.428 256.131 338.128 257.48 333.049 258.934C331.705 259.315 330.583 259.777 329.239 260.109C327.895 260.442 326.921 260.989 325.134 261.065C324.798 261.095 324.468 261.15 324.17 261.226C323.872 261.302 323.614 261.397 323.417 261.503C320.631 262.761 317.252 263.876 313.478 264.782C308.399 266.309 303.096 267.781 298.016 269.333C296.541 269.833 295.165 270.366 293.904 270.925C292.936 271.328 291.913 271.716 290.838 272.088C290.016 272.377 289.195 272.544 289.488 272.984C289.78 273.425 288.439 273.512 287.693 273.648C285.153 274.188 282.533 274.661 279.861 275.063C277.216 275.419 274.678 275.939 272.4 276.593C270.757 277.074 269.111 277.726 266.804 277.723C266.807 277.453 266.81 277.184 267.187 276.785C265.255 276.62 263.111 276.63 260.935 276.812C258.758 276.994 256.611 277.344 254.67 277.833L251.625 277.329C250.929 277.377 250.232 277.47 249.578 277.605C248.924 277.74 248.325 277.913 247.819 278.113C247.425 278.258 246.922 278.362 246.402 278.405C245.882 278.449 245.38 278.429 244.988 278.35C244.415 278.273 243.743 278.262 243.053 278.32C242.364 278.378 241.689 278.501 241.114 278.675C239.262 279.097 237.23 279.369 235.224 279.461C234.654 279.326 234.26 279.124 234.091 278.882C233.921 278.639 233.985 278.367 234.273 278.097C234.73 277.637 234.922 277.174 234.838 276.735C234.753 276.296 234.394 275.891 233.783 275.543C233.454 275.316 233.286 275.055 233.289 274.777C233.292 274.499 233.467 274.21 233.802 273.926C235.007 272.724 234.49 272.424 231.742 271.92C231.294 271.833 230.771 271.784 230.208 271.776C229.644 271.769 229.051 271.803 228.467 271.876C227.107 272.08 225.781 272.331 224.514 272.623C223.769 272.686 223.094 273.036 222.273 273.227C218.168 274.183 217.428 273.878 215.798 273.231L214.612 272.767C212.664 272.702 210.583 272.793 208.521 273.033C206.459 273.274 204.466 273.657 202.687 274.157C201.985 274.373 201.147 274.521 200.3 274.577C197.557 274.799 194.837 275.21 192.322 275.784C190.758 276.153 189.019 276.384 187.315 276.449C185.611 276.513 184.014 276.409 182.715 276.148C181.549 275.912 180.093 275.828 178.55 275.909C176.762 276.059 176.469 275.667 177.295 275.035C178.122 274.403 179.547 273.476 180.822 272.684C181.266 272.411 181.503 272.12 181.507 271.843C181.51 271.566 181.279 271.314 180.841 271.116C180.456 270.66 180.262 270.175 180.262 269.671C180.28 269.456 180.158 269.254 179.905 269.079C179.651 268.904 179.273 268.76 178.794 268.656C178.316 268.552 177.749 268.491 177.131 268.478C176.514 268.464 175.86 268.497 175.214 268.576C172.457 268.807 169.775 269.031 167.016 269.434C165.853 269.58 164.676 269.679 163.515 269.727C161.098 269.703 158.566 269.848 156.066 270.155C154.884 270.312 153.68 270.316 152.717 270.166C149.737 269.881 146.946 269.475 144.395 268.953C143.754 268.745 142.954 268.596 142.046 268.516C141.137 268.436 140.14 268.427 139.116 268.49C138.296 268.558 137.554 268.376 136.885 268.309C136.273 267.861 136.058 267.337 136.26 266.785C136.462 266.232 137.074 265.671 138.039 265.153C138.939 264.613 139.764 264.054 140.515 263.502C141.456 262.95 142.618 262.432 143.958 261.965C145.52 261.337 146.592 260.607 147.034 259.872C142.34 260.265 137.727 260.161 133.987 261.698L130.786 261.722C130.791 261.33 130.795 260.987 130.799 260.668C131.328 259.924 131.337 259.193 130.824 258.536C130.481 258.249 130.399 257.914 130.586 257.568C130.773 257.221 131.223 256.874 131.89 256.562C135.713 254.309 140.279 252.164 143.804 249.861C144.953 249.276 146.343 248.738 147.917 248.269C149.412 247.727 149.195 247.256 147.26 247.198C146.182 247.189 145.088 247.198 143.985 247.227C139.503 248.582 138.139 250.605 132.914 251.801L129.951 250.63C129.303 250.801 128.679 250.984 128.084 251.178L119.78 254.639C119.081 254.902 118.568 255.209 118.301 255.525C118.034 255.842 118.024 256.155 118.27 256.43C118.451 256.804 118.447 257.201 118.256 257.606C118.139 257.885 118.35 258.14 118.843 258.316C119.955 258.712 118.833 259.173 118.159 259.572C117.978 259.648 117.762 259.713 117.525 259.765C117.288 259.818 117.034 259.856 116.778 259.877C116.521 259.899 116.268 259.903 116.032 259.891C115.795 259.878 115.581 259.848 115.402 259.803C113.916 259.561 112.58 259.232 111.095 258.915C111.777 257.953 110.372 257.165 111.575 256.109C111.693 255.937 111.708 255.767 111.621 255.611C111.533 255.454 111.344 255.313 111.065 255.197C110.346 254.899 109.929 254.518 109.856 254.095C109.783 253.671 110.056 253.219 110.647 252.785L110.651 252.515C108.644 252.243 108.878 251.366 107.918 250.712L106.058 250.672C101.444 250.618 101.444 250.642 97.8568 251.824C96.9671 251.531 97.8649 251.162 98.5381 250.886L104.149 248.482C107.815 246.902 111.629 245.408 115.815 243.932C120.001 242.455 124.564 240.482 128.828 238.754C129.04 238.657 129.192 238.55 129.271 238.441C129.35 238.332 129.354 238.225 129.282 238.129C129.071 238.066 128.808 238.024 128.512 238.007C128.216 237.989 127.894 237.996 127.571 238.027C126.081 238.152 124.589 238.399 123.024 238.604L120.116 239.019L119.078 238.689C118.41 238.501 117.893 238.177 117.075 238.147C116.407 238.144 115.701 238.203 115.032 238.319C114.363 238.435 113.755 238.604 113.271 238.809C111.924 239.362 110.727 239.927 109.455 240.499C108.182 241.07 107.508 241.47 106.386 241.906C104.069 242.672 101.848 243.471 99.7332 244.299C98.0232 245.224 96.4704 246.172 95.0846 247.136C94.1856 247.628 93.3606 248.137 91.6455 248.403C90.7981 248.422 90.0354 248.337 89.4925 248.163C88.9496 247.989 88.6616 247.737 88.6796 247.452C88.7049 247.225 88.9041 246.99 89.2584 246.767C89.6127 246.545 90.1103 246.343 90.7044 246.181C92.3363 245.628 93.8172 245.028 95.1174 244.392C96.8998 243.419 99.1623 242.531 101.773 241.778C102.669 241.557 103.194 241.17 103.942 240.862C104.69 240.555 105.29 240.187 106.185 240.038C108.945 239.513 110.072 238.636 111.571 237.825C112.068 237.518 112.333 237.191 112.336 236.88C112.34 236.568 112.082 236.285 111.592 236.061C110.64 235.606 109.522 235.199 108.257 234.847C107.611 234.681 106.817 234.58 105.939 234.552C105.062 234.523 104.123 234.568 103.197 234.683C102.542 234.428 102.132 234.102 102.007 233.737C101.881 233.371 102.043 232.977 102.478 232.589C103.606 231.663 104.584 230.773 107.569 230.156C108.964 229.84 110.251 229.459 111.378 229.029C113.897 228.134 116.902 227.419 120.111 226.952C120.941 226.83 121.745 226.672 122.499 226.482C127.874 225.127 132.952 223.698 138.031 222.22C140.72 221.432 143.41 220.57 146.247 219.843C152.892 218.112 158.797 216.075 165.146 214.197C168.471 213.213 171.363 212.066 173.671 210.815C174.1 210.505 174.452 210.189 174.725 209.871C172.921 209.827 170.993 209.949 169.126 210.225C167.259 210.501 165.516 210.923 164.062 211.449C163.301 211.859 162.263 212.216 161.064 212.48C159.865 212.745 158.552 212.907 157.271 212.948L160.635 211.687C162.878 210.887 165.194 210.13 167.363 209.312C170.802 207.996 173.944 206.631 177.532 205.352C180.424 204.303 182.945 203.152 185.016 201.935C186.511 201.052 188.27 200.206 190.257 199.415C191.677 198.88 191.677 198.88 192.36 197.82C191.47 197.551 190.5 197.78 189.603 198.05C184.149 199.419 179.034 200.964 174.364 202.655C171.981 203.424 169.928 204.3 168.304 205.243C167.929 205.544 166.809 205.809 165.913 206.031C163.132 206.814 160.507 207.665 158.068 208.573C154.707 209.865 150.873 211.013 146.713 211.971C145.822 211.826 146.718 211.579 146.72 211.432C149.786 210.196 152.778 208.942 155.919 207.725C156.772 207.374 157.698 207.043 158.685 206.734C162.41 205.708 165.367 204.382 167.141 202.942C167.145 202.599 168.489 202.217 169.015 201.83C169.25 201.565 169.378 201.299 169.397 201.04C168.358 200.735 167.387 201.037 166.64 201.271C164.493 202.015 162.446 202.791 160.509 203.595C158.71 204.347 156.673 205.036 154.455 205.644C152.813 206.076 151.466 206.629 149.823 207.109C148.916 207.319 147.964 207.497 146.988 207.64C147.897 206.915 149.227 206.227 150.883 205.625C152.081 204.986 153.651 204.414 153.66 203.728C152.918 203.472 152.246 203.675 151.722 203.89C150.602 204.24 149.529 204.608 148.509 204.992C146.347 205.809 143.965 206.559 141.411 207.226C140.072 207.596 138.82 208.004 137.675 208.445C135.059 209.373 132.59 210.388 130.198 211.249C125.266 212.91 120.853 214.7 116.144 216.391C115.097 216.773 114.198 217.24 112.708 217.389C111.218 217.538 111.143 217.52 110.922 217.392C110.436 217.214 110.225 216.96 110.335 216.682C110.547 216.388 111.052 216.102 111.758 215.877C115.919 214.209 119.818 212.476 123.432 210.69C125.067 210.046 126.456 209.343 127.55 208.607C128.43 208.06 129.515 207.541 130.769 207.065C132.572 206.303 134.469 205.564 136.453 204.851C137.373 204.513 138.127 204.132 138.669 203.729C139.21 203.326 139.529 202.91 139.607 202.506L136.783 202.131C136.379 202.199 135.981 202.273 135.589 202.353L115.406 209.599L113.389 210.258C111.148 210.886 110.553 210.887 108.03 210.217C112.735 208.396 116.225 206.297 118.151 204.131C117.533 204.157 116.907 204.21 116.288 204.287C112.344 205.156 108.687 206.207 105.459 207.397C103.516 208.025 101.499 208.61 99.4825 209.219C99.8647 208.379 102.178 207.868 103.6 207.259C107.034 205.927 109.986 204.475 112.36 202.952C113.168 202.394 114.232 201.866 115.504 201.391C116.791 200.961 117.82 200.454 118.501 199.915C119.182 199.376 119.494 198.821 119.411 198.298C119.391 197.807 119.522 197.304 119.802 196.797C118.924 196.476 117.639 196.31 116.186 196.328C114.733 196.346 113.213 196.547 111.911 196.894C109.099 197.532 106.14 198.06 103.109 198.464C101.599 198.662 100.15 198.958 98.8563 199.334C97.7166 199.668 96.3717 199.891 95.027 199.968C93.6822 200.045 92.4112 199.973 91.408 199.762C90.071 199.531 88.8087 199.269 87.5465 199.008C86.2843 198.746 84.8002 198.381 83.3156 198.04C82.1739 198.273 81.0741 198.537 80.0312 198.829C79.236 199.109 78.273 199.323 77.256 199.447C76.239 199.571 75.2103 199.6 74.2915 199.53C74.6693 199.058 75.1214 198.604 75.5746 198.052C74.6372 197.806 73.912 197.482 73.443 197.1C72.9741 196.718 72.7714 196.287 72.8472 195.833C72.8518 195.441 71.8137 195.112 71.3716 194.732C70.8655 194.445 70.6753 194.088 70.826 193.708C70.9766 193.329 71.4611 192.944 72.2159 192.606C73.1344 192.129 73.8448 191.623 74.3178 191.108C74.4818 190.961 74.5418 190.812 74.4925 190.674C74.4431 190.536 74.286 190.413 74.0354 190.317C73.7848 190.221 73.4487 190.155 73.058 190.125C72.6673 190.095 72.2343 190.101 71.7987 190.144C70.4705 190.294 69.1776 190.527 67.9945 190.83C65.9539 191.343 64.0123 191.873 62.1698 192.419C60.1285 193.011 57.7864 193.443 55.3816 193.673C53.2209 193.853 51.2838 194.016 50.0251 193.46C48.7664 192.905 47.197 193.428 45.7858 193.179C46.2891 192.397 47.3767 191.622 48.9389 190.932C49.978 190.535 50.8091 190.087 51.3787 189.618C51.9483 189.148 52.2438 188.668 52.2464 188.207L48.0109 187.607C44.8092 187.704 43.3814 188.852 40.0984 189.518L43.1702 187.841C43.2158 187.757 43.2168 187.674 43.1731 187.596C42.4433 186.385 41.8492 186.263 38.2727 186.587L36.2611 186.755L33.1297 187.189C32.569 187.07 32.1515 186.893 31.919 186.676C31.6865 186.459 31.6471 186.21 31.8048 185.954C32.141 185.5 32.1463 185.053 31.8203 184.655C31.437 184.444 31.3258 184.173 31.506 183.889C31.6861 183.606 32.1462 183.328 32.8064 183.104C33.3297 182.913 33.2596 182.552 33.4863 182.264C33.6878 181.901 34.1133 181.538 34.7338 181.199C35.3544 180.86 36.1553 180.552 37.0824 180.298C39.7933 179.477 42.2999 178.577 44.5575 177.616L44.1105 177.653C46.6023 177.093 48.8803 176.404 50.8336 175.622C52.7786 174.798 55.392 174.114 57.4855 173.327C59.2285 172.809 60.4648 172.126 60.932 171.423C61.3866 170.748 63.6265 170.169 65.3436 169.732C66.3624 169.477 67.3368 169.199 68.2565 168.9C69.4605 168.402 71.0413 168.019 72.7354 167.815C73.2443 167.756 73.7326 167.656 74.153 167.525C78.2605 166.374 82.3676 165.246 86.4011 164.052C87.3156 163.723 88.4289 163.469 89.6104 163.318C90.1079 163.258 90.5768 163.15 90.954 163.01C97.2324 160.82 104.547 159.081 110.677 156.854C111.41 156.553 112.24 156.278 113.143 156.036C115.197 155.569 116.903 154.919 118.004 154.185C118.598 153.792 119.404 153.425 120.368 153.108C121.333 152.791 122.437 152.531 123.608 152.345C125.539 151.978 127.268 151.461 128.612 150.849C131.289 149.832 134.137 148.866 137.132 147.957C138.056 147.698 138.841 147.383 139.426 147.037C140.011 146.69 140.38 146.322 140.505 145.961C139.615 145.693 138.795 145.884 138.047 146.167C135.06 146.98 132.073 147.769 129.16 148.624C126.52 149.285 124.018 150.02 121.691 150.816C120.547 151.25 119.045 151.552 117.513 151.656C115.63 151.769 113.763 152.118 112.291 152.632C111.192 152.989 110.016 153.317 108.781 153.611C107.975 153.75 107.126 153.821 106.322 153.817C106 153.806 105.658 153.82 105.317 153.857C104.976 153.894 104.644 153.953 104.342 154.032C104.039 154.11 103.774 154.205 103.562 154.311C103.35 154.418 103.197 154.532 103.112 154.648C102.206 155.679 99.5958 156.118 97.4302 156.715C93.8592 156.574 91.6837 158.004 88.4797 158.297C88.2289 158.328 87.9869 158.376 87.7686 158.436C87.5504 158.496 87.3604 158.569 87.2101 158.648C81.5268 160.862 74.6577 162.661 68.6043 164.71C67.9383 164.941 67.1367 165.118 66.2909 165.222C60.759 165.888 55.6477 167.188 51.9564 168.87C51.5025 169.059 50.9715 169.228 50.3874 169.368C47.6399 169.805 45.0803 170.439 42.9222 171.217C39.4859 172.264 36.1983 173.322 32.688 174.326C30.2477 174.952 28.1847 175.75 26.7058 176.638C26.7037 176.81 25.5852 176.977 24.7636 177.217C24.171 176.973 23.6529 176.747 23.0598 176.552C22.4921 176.259 21.7074 176.028 20.7589 175.875C19.8104 175.722 18.7205 175.651 17.5625 175.666C15.6254 175.828 15.2594 175.296 16.4576 174.682C19.4963 172.94 23.5083 171.357 28.1987 170.051C32.0835 168.845 36.043 167.632 40.0018 166.468C42.317 165.809 44.7805 165.187 47.0215 164.51C47.7918 164.326 48.5904 164.161 49.4092 164.016C50.4211 163.861 51.3836 163.648 52.2452 163.387C54.9633 162.397 58.0745 161.539 61.4305 160.856C62.6442 160.555 63.795 160.221 64.8662 159.858C67.3897 158.965 70.1777 158.164 73.1565 157.475C75.0038 157.034 76.7773 156.55 78.4585 156.027C79.0561 155.855 79.5057 155.597 80.1024 155.498C85.3958 154.761 88.7658 153.035 93.3937 151.937C95.6218 151.337 97.7235 150.677 99.6694 149.968C103.523 148.762 107.512 147.612 111.62 146.519C117.07 145.133 122.002 143.472 127.155 141.987C128.173 141.696 129.147 141.385 130.069 141.058C134.538 139.406 139.483 137.906 144.786 136.595C145.981 136.271 147.024 135.881 147.849 135.449C148.674 135.018 149.263 134.555 149.579 134.088C149.685 133.803 149.476 133.542 148.993 133.354C148.227 133.161 147.38 133.002 146.468 132.88L117.122 140.723C115.886 141.039 114.689 141.376 113.538 141.732C110.153 142.783 106.637 143.781 103.007 144.719C99.4232 145.656 96.0607 146.745 92.6246 147.767C91.6119 148.066 90.5651 148.35 89.4885 148.617C82.1882 150.35 75.1279 152.225 68.3573 154.23C65.5184 155.104 62.3836 155.831 59.4709 156.663C56.5581 157.494 52.5987 158.707 49.1624 159.753L38.5534 163.089C36.4617 163.73 34.4438 164.413 32.4263 165.071C29.4593 164.218 28.493 164.103 24.991 164.421C23.7869 164.51 22.5968 164.712 21.5603 165.002C18.346 166.152 14.0944 166.9 11.0303 167.94C9.15704 168.489 7.63343 169.166 6.61549 169.9C5.72198 170.506 4.66748 171.095 3.46829 171.657C-0.398394 171.344 -0.984112 170.537 1.486 169.375C2.15947 169.074 3.13038 168.797 3.58093 168.465C3.83753 168.269 4.21434 168.085 4.6813 167.927C5.14827 167.769 5.69246 167.641 6.27123 167.555C8.08333 167.236 9.73167 166.777 11.0508 166.224C12.2772 165.656 13.8466 165.171 15.6079 164.815C16.949 164.703 17.9255 163.96 18.973 163.505C20.0205 163.05 20.845 162.565 22.634 162.342C22.9631 162.306 23.2823 162.246 23.5671 162.167C23.8519 162.088 24.0947 161.992 24.2769 161.886C26.0321 161.117 28.2076 160.457 30.6266 159.959C34.2956 159.065 37.6716 158.014 40.6376 156.844C42.3942 156.084 43.837 155.26 44.9094 154.406C45.1925 154.144 45.6568 153.895 46.2577 153.681C49.3415 152.821 52.7725 152.15 56.3295 151.712C57.6742 151.562 59.001 151.36 60.2815 151.112C62.9208 150.625 65.4337 150.027 67.7459 149.336C71.0926 148.291 74.6129 147.317 78.2755 146.423C80.5315 145.857 82.681 145.235 84.6987 144.563C86.7786 143.892 89.0358 143.292 91.419 142.777C93.7772 142.226 95.7763 141.489 97.1755 140.655C97.6126 140.305 97.9414 139.949 98.1558 139.594C94.5147 139.8 90.8898 140.462 88.0109 141.447C86.891 141.736 85.9937 142.081 84.728 142.113L84.7265 142.236C84.518 142.38 84.1747 142.507 83.7619 142.591C83.3491 142.675 82.8958 142.711 82.4882 142.692C82.4938 142.227 82.4991 141.786 82.5029 141.467C84.7298 140.824 86.8753 140.146 88.9283 139.436C90.6478 138.803 93.2528 138.805 94.676 138.049C97.7346 137.475 99.4593 136.4 102.147 135.71C104.835 135.02 107.892 134.568 110.58 133.878C112.911 133.231 115.156 132.544 117.303 131.822C118.03 131.527 118.894 131.271 119.843 131.071C121.19 130.831 122.403 130.481 123.342 130.061C124.282 129.64 124.91 129.166 125.156 128.692C124.712 128.46 124.12 128.167 123.454 127.88C124.302 127.206 125.719 126.589 127.494 126.122L129.96 125.328C130.618 125.132 131.087 124.875 131.27 124.609C131.453 124.343 131.337 124.089 130.944 123.899C125.808 123.938 125.586 123.834 122.436 125.836L117.735 126.841L117.81 126.811ZM180.814 111.352L180.442 111.384L180.814 111.352ZM797.79 85.1232L797.787 85.3927L797.791 85.0987L798.61 85.0301L798.612 84.8586L797.79 85.1232ZM652.991 12.8978C651.825 12.9709 650.656 13.0689 649.489 13.191C649.192 13.2467 648.92 13.3233 648.699 13.4143C648.478 13.5053 648.313 13.608 648.218 13.7136C648.214 14.0077 648.884 14.0005 649.48 13.9506C650.235 13.8983 650.986 13.7799 651.656 13.6077C652.325 13.4354 652.889 13.2156 653.288 12.9709L653.887 12.676L652.991 12.8978ZM116.005 252.899C116.732 252.72 117.41 252.515 118.022 252.29C120.715 251.207 123.259 250.064 126.026 248.976C129.437 247.347 133.475 245.852 137.988 244.547C139.754 244.047 141.181 243.418 142.103 242.734C142.662 242.347 143.426 241.983 144.349 241.665L156.012 237.359C156.706 237.008 157.285 236.639 157.737 236.26C156.619 236.354 155.874 236.416 155.427 236.454C154.552 236.699 153.83 237.005 153.332 237.339C152.83 237.798 151.868 238.22 150.639 238.519C149.402 238.836 148.205 239.173 147.054 239.529C144.887 240.225 142.72 240.969 140.553 241.689C139.945 242.719 137.334 243.158 135.169 243.755L133.525 244.309C128.24 246.403 123.244 248.571 118.561 250.8C117.651 251.214 116.893 251.657 116.312 252.114C116.125 252.388 116.122 252.656 116.303 252.899L115.931 252.93L116.005 252.899ZM380.493 250.09C381.822 249.73 383.222 249.408 384.672 249.128C385.803 248.953 386.887 248.721 387.881 248.443C393.452 246.882 399.326 245.472 405.423 244.233C406.224 244.084 406.98 243.896 407.662 243.678L412.446 242.005C413.941 241.439 413.943 241.341 412.464 240.51C411.472 240.57 410.476 240.654 409.484 240.76C408.888 240.81 407.919 240.891 407.767 241.148C406.64 242.075 404.179 242.477 402.163 242.988C396.339 244.504 390.293 245.94 384.395 247.413C383.145 247.713 381.946 248.043 380.811 248.399C380.101 248.602 379.469 248.837 378.942 249.094C378.783 249.153 378.655 249.22 378.567 249.291C378.48 249.362 378.434 249.434 378.433 249.504C378.432 249.573 378.476 249.638 378.562 249.694C378.649 249.75 378.775 249.796 378.933 249.829C379.489 249.943 380.115 250.022 380.791 250.065L380.493 250.09ZM368.776 65.8L374.381 63.8864C375.054 63.6588 375.579 63.3211 376.325 63.1607C380.26 62.1594 383.823 60.9755 386.862 59.6593C387.89 59.1888 389.133 58.7689 390.524 58.4225C394.779 57.3539 398.725 56.1261 402.253 54.7723C404.565 53.9972 406.694 53.1628 408.61 52.2819C408.745 52.1746 408.815 52.0643 408.817 51.9586C408.818 51.8529 408.75 51.7542 408.617 51.6693C408.569 51.6044 408.476 51.5476 408.345 51.5027C408.213 51.4578 408.046 51.426 407.855 51.4094C407.664 51.3928 407.454 51.3919 407.239 51.4066C407.024 51.4213 406.809 51.4514 406.609 51.4947C403.981 51.9417 401.55 52.573 399.516 53.337C397.641 54.0761 395.587 54.7649 393.388 55.3922C391.297 56.0324 390.021 56.9226 387.336 57.3922C386.21 57.6227 385.259 57.9616 384.645 58.3518C383.387 59.0735 381.508 59.6818 379.339 60.0689C378.05 60.3251 376.84 60.6412 375.756 61.0054C373.139 61.9343 370.671 62.9242 368.278 63.8834C367.519 64.1699 366.693 64.4359 365.812 64.6774L353.415 68.1632C350.428 68.9763 347.441 69.7649 344.528 70.6207C342.123 71.2482 339.931 71.9767 338.027 72.7806C335.997 73.6349 333.741 74.4314 331.3 75.1553C327.563 76.4473 323.827 77.6658 319.718 78.94C317.103 79.7709 314.414 80.5835 311.651 81.3534C310.231 81.6734 309.085 82.1355 308.435 82.6508C308.058 83.025 306.94 83.1676 306.044 83.3894C301.193 84.3402 296.758 85.597 293.049 87.0722C292.578 87.2705 292.051 87.4544 291.479 87.6197C287.818 88.7585 284.009 89.8852 280.497 90.987C279.58 91.2993 278.729 91.6327 277.955 91.9832C278.091 92.1158 278.391 92.2117 278.793 92.251C279.194 92.2903 279.666 92.27 280.111 92.1943C283.572 91.5976 286.852 90.8264 289.814 89.9132C294.719 88.3107 299.915 86.8194 305.349 85.4548C309.588 84.468 313.343 83.2166 316.334 81.7935C318.678 80.6967 321.899 79.8212 325.445 79.3172C326.971 79.1291 328.404 78.7953 329.55 78.3615C330.645 77.9204 331.94 77.5373 333.359 77.2348C336.343 76.57 339.174 75.8073 341.797 74.9617C344.339 74.0635 346.658 73.0615 349.274 72.1571C351.89 71.2527 355.923 70.0338 359.138 68.8834C362.352 67.7331 365.565 66.7053 368.776 65.8ZM130.618 126.301C131.132 126.895 132.322 126.991 133.515 126.817C137.685 126.402 141.663 125.533 144.783 124.356C146.42 123.568 148.737 122.946 151.279 122.613C154.223 122.172 156.867 121.422 158.748 120.494C159.215 120.289 159.55 120.059 159.723 119.825C159.725 119.678 159.728 119.409 159.729 119.36C159.486 119.312 159.198 119.288 158.889 119.288C158.579 119.289 158.255 119.314 157.943 119.362L144.729 122.647L142.415 123.184C138.146 124.026 134.156 125.08 130.618 126.301ZM159.537 129.167C161.913 129.653 161.913 129.629 163.031 129.56C168.367 129.054 173.546 128.06 177.951 126.695C178.928 126.384 179.724 126.016 180.272 125.619C180.578 125.493 180.75 125.342 180.752 125.2C180.754 125.057 180.584 124.935 180.281 124.86L178.423 124.575C175.393 125.15 172.427 125.783 169.543 126.469C166.184 127.264 163.271 128.169 159.835 129.142L159.537 129.167ZM378.69 245.198C381.061 246.15 381.061 246.126 384.343 245.533C386.632 245.124 388.818 244.62 390.837 244.035C393.302 243.314 395.841 242.612 398.305 241.916C398.917 241.778 399.41 241.578 399.687 241.356C399.965 241.134 400.008 240.905 399.808 240.713C399.409 240.563 398.831 240.477 398.169 240.47C397.507 240.463 396.799 240.536 396.161 240.676L394.817 241.058C393.175 241.489 391.458 241.902 389.889 242.376C388.894 242.759 387.704 243.078 386.41 243.31C385.116 243.541 383.753 243.678 382.43 243.71L378.69 245.198ZM166.826 117.15C167.414 117.259 168.064 117.336 168.759 117.38C171.367 117.285 174.027 116.862 176.216 116.192C177.261 115.909 178.16 115.467 179.278 115.348C181.252 115.04 183.127 114.617 184.801 114.103C184.801 114.103 185.25 113.894 185.399 113.832L185.412 112.754C184.55 112.776 183.667 112.85 182.804 112.973C179.969 113.577 177.207 114.249 174.445 114.896C171.683 115.544 170.713 115.747 168.922 116.216C168.149 116.51 167.447 116.823 166.826 117.15ZM145.352 257.418L149.584 258.287C150.805 258.095 151.904 257.784 152.715 257.403C153.525 257.021 154.003 256.59 154.075 256.173C154.319 255.913 154.271 255.655 153.94 255.454C153.609 255.254 153.022 255.126 152.301 255.098C151.591 255.019 150.802 254.997 149.982 255.032C149.162 255.067 148.33 255.158 147.535 255.301L145.352 257.418ZM172.229 238.033C169.766 238.434 167.468 239.003 165.511 239.697C164.326 240.287 162.616 240.754 160.732 241.003C157.288 241.4 154.102 242.211 151.847 243.264C151.847 243.264 151.844 243.558 151.469 243.761C151.095 243.964 152.736 243.655 153.108 243.624C155.721 243.014 158.334 242.354 160.574 241.726C161.951 241.29 163.428 240.896 164.98 240.549C167.121 240.094 169.114 239.538 170.879 238.905C170.879 238.905 171.553 238.628 172.229 238.057L172.229 238.033ZM391.237 54.7646C389.993 54.7412 388.676 54.8183 387.385 54.99C386.094 55.1617 384.862 55.4235 383.782 55.756C382.951 55.9955 382.314 56.3047 381.973 56.6347C381.632 56.9647 381.606 57.2967 381.9 57.5781C382.794 57.5032 383.986 57.4034 384.657 57.3473C386.823 56.6518 388.619 55.8895 391.237 54.7646ZM611.965 20.3474C610.967 20.3276 609.899 20.4082 608.883 20.5797C607.868 20.7513 606.946 21.0071 606.222 21.3178C605.848 21.4715 606.217 21.7343 606.215 21.9549C606.186 22.0136 606.205 22.0698 606.268 22.1176C606.33 22.1655 606.436 22.2032 606.573 22.2268C606.709 22.2503 606.872 22.259 607.045 22.2517C607.217 22.2445 607.392 22.2217 607.552 22.1856C608.573 22.0085 609.51 21.757 610.28 21.4533C611.05 21.1497 611.628 20.8034 611.964 20.4454L611.965 20.3474ZM627.448 20.2504C627.252 20.1153 626.896 20.0221 626.445 19.9879C625.994 19.9537 625.479 19.9808 624.994 20.0642C624.168 20.3142 623.436 20.5986 622.825 20.9067C622.152 21.2079 622.817 21.5682 623.859 21.5789C624.299 21.5766 624.757 21.5386 625.197 21.4678C625.637 21.3971 626.048 21.2955 626.396 21.1713C626.745 21.0471 627.021 20.9036 627.204 20.7522C627.386 20.6009 627.469 20.4458 627.447 20.2994L627.448 20.2504ZM204.082 107.544C201.775 107.566 200.204 108.236 198.339 108.539C196.475 108.842 196.027 108.953 196.395 109.289C196.763 109.625 197.96 109.158 198.779 109.089C199.885 108.992 200.967 108.797 201.903 108.524C202.84 108.251 203.594 107.911 204.082 107.544ZM677.074 77.9255C675.913 78.1323 674.788 78.3741 673.716 78.6472C673.596 78.7503 673.534 78.8553 673.533 78.9563C673.532 79.0573 673.592 79.1521 673.709 79.2353C673.709 79.2353 674.527 79.3382 674.974 79.3007C676.613 79.139 676.544 78.6552 677.074 77.9255ZM853.505 87.9971C854.396 88.1918 854.84 88.3749 855.51 88.3922C855.81 88.377 856.114 88.3391 856.398 88.2814C856.682 88.2237 856.939 88.1477 857.151 88.059C857.378 87.8511 857.38 87.6412 857.158 87.4709C857.158 87.4709 856.267 87.3253 855.968 87.3992C855.104 87.5701 854.277 87.7708 853.505 87.9971ZM167.074 115.146C165.36 115.29 163.721 115.427 162.744 116.194C165.428 115.847 165.428 115.847 167.074 115.146ZM194.289 111.105C192.431 110.845 191.461 111.073 190.713 111.405C190.555 111.479 190.461 111.563 190.446 111.643C190.431 111.724 190.495 111.798 190.629 111.853C190.763 111.908 190.959 111.942 191.188 111.949C191.417 111.956 191.666 111.937 191.898 111.893C192.748 111.65 193.548 111.387 194.289 111.105ZM277.588 85.3071C277.59 85.1845 277.591 85.0375 277.144 85.075C277.02 85.0617 276.879 85.0611 276.735 85.0732C276.591 85.0852 276.45 85.1095 276.325 85.1436C276.325 85.1436 276.323 85.2906 276.322 85.3886L277.588 85.3071ZM393.277 251.614L392.379 252.007L392.826 251.97L393.946 251.68L393.277 251.614ZM674.987 3.419C674.615 3.4502 674.242 3.4814 674.24 3.65291C674.174 3.70005 674.14 3.7491 674.139 3.79599C674.139 3.84287 674.172 3.88623 674.237 3.92243C674.237 3.92243 674.758 3.87876 674.982 3.86004L674.987 3.419ZM621.179 21.681C620.947 21.744 620.744 21.8192 620.581 21.9024L620.579 22.0494L621.324 21.987L621.179 21.681ZM158.819 201.754C158.525 201.757 158.22 201.783 157.925 201.829L157.552 201.86C157.552 201.86 157.997 201.97 158.221 201.951C158.444 201.932 158.595 201.822 158.819 201.754Z" fill="#F9DCD0"/>
</svg>
