<svg width="504" height="159" viewBox="0 0 504 159" fill="none" xmlns="http://www.w3.org/2000/svg">
<path d="M2.81508 158.02C1.94841 157.673 1.29841 156.937 0.865076 155.81C0.345077 154.683 0.0850768 153.34 0.0850768 151.78C0.0850768 149.787 0.475077 147.62 1.25508 145.28C1.94841 143.027 2.98841 140.86 4.37508 138.78C5.93508 136.44 8.96841 129.723 13.4751 118.63C17.8951 107.537 22.4017 95.4033 26.9951 82.23C31.6751 68.97 35.1851 58.0067 37.5251 49.34C38.6517 44.92 40.3417 40.5433 42.5951 36.21C44.9351 31.79 47.7084 29.58 50.9151 29.58C51.2617 29.58 51.8684 29.6667 52.7351 29.84C55.5084 30.7067 56.8951 33.1767 56.8951 37.25C56.8951 40.5433 56.0284 44.66 54.2951 49.6C49.9617 62.7733 44.9351 76.5533 39.2151 90.94C33.5817 105.327 28.3384 117.98 23.4851 128.9C18.6317 139.907 15.3817 146.71 13.7351 149.31C11.6551 152.603 10.0084 154.943 8.79508 156.33C7.49508 157.717 6.10841 158.41 4.63508 158.41C4.11508 158.41 3.50841 158.28 2.81508 158.02Z" fill="#A814D9"/>
<path d="M48.5395 113.82C47.3262 113.3 46.7195 112 46.7195 109.92C46.7195 107.927 47.2395 105.153 48.2795 101.6C48.4529 100.907 49.4062 98.3933 51.1395 94.06C54.5195 85.22 57.5529 77.03 60.2395 69.49C62.9262 61.95 65.4395 54.15 67.7795 46.09C69.2529 40.89 70.8129 37.0767 72.4595 34.65C74.1062 32.1367 76.2295 30.88 78.8295 30.88C83.7695 30.88 86.2395 33.61 86.2395 39.07C86.2395 41.5833 85.7195 44.53 84.6795 47.91C83.0329 53.37 80.4329 60.4767 76.8795 69.23C73.3262 77.9833 69.7729 86.26 66.2195 94.06C62.6662 101.773 60.2395 106.67 58.9395 108.75C56.5129 112.563 54.0429 114.47 51.5295 114.47C50.6629 114.47 49.6662 114.253 48.5395 113.82Z" fill="#E90F0D"/>
<path d="M113.331 114.73C108.478 114.73 103.928 113.603 99.6813 111.35C95.4347 109.01 92.0113 105.717 89.4113 101.47C86.898 97.2233 85.6413 92.37 85.6413 86.91C85.6413 73.13 89.3247 60.0867 96.6913 47.78C104.145 35.3867 114.025 25.4633 126.331 18.01C138.725 10.47 151.985 6.69999 166.111 6.69999C172.005 6.69999 176.468 7.21999 179.501 8.26C182.621 9.21333 184.181 11.2067 184.181 14.24C184.181 16.7533 183.141 18.53 181.061 19.57C179.068 20.61 176.468 21.13 173.261 21.13C160.608 21.13 148.778 23.86 137.771 29.32C126.851 34.78 118.098 42.58 111.511 52.72C104.925 62.7733 101.631 74.4733 101.631 87.82C101.631 90.94 102.801 93.67 105.141 96.01C107.568 98.35 110.385 99.52 113.591 99.52C118.618 99.52 122.778 97.2233 126.071 92.63C129.365 88.0367 131.705 82.4033 133.091 75.73C133.698 72.87 134.825 70.7467 136.471 69.36C138.205 67.9733 139.938 67.28 141.671 67.28C144.098 67.28 145.961 68.2333 147.261 70.14C148.648 72.0467 149.341 74.4733 149.341 77.42C149.341 78.0267 149.255 79.11 149.081 80.67C148.475 84.57 146.655 89.2067 143.621 94.58C140.588 99.9533 136.471 104.677 131.271 108.75C126.071 112.737 120.091 114.73 113.331 114.73Z" fill="#FDE037"/>
<path d="M172.805 158.02C171.939 157.673 171.289 156.937 170.855 155.81C170.335 154.683 170.075 153.34 170.075 151.78C170.075 149.787 170.465 147.62 171.245 145.28C171.939 143.027 172.979 140.86 174.365 138.78C175.925 136.44 178.959 129.723 183.465 118.63C187.885 107.537 192.392 95.4033 196.985 82.23C201.665 68.97 205.175 58.0067 207.515 49.34C208.642 44.92 210.332 40.5433 212.585 36.21C214.925 31.79 217.699 29.58 220.905 29.58C221.252 29.58 221.859 29.6667 222.725 29.84C225.499 30.7067 226.885 33.1767 226.885 37.25C226.885 40.5433 226.019 44.66 224.285 49.6C219.952 62.7733 214.925 76.5533 209.205 90.94C203.572 105.327 198.329 117.98 193.475 128.9C188.622 139.907 185.372 146.71 183.725 149.31C181.645 152.603 179.999 154.943 178.785 156.33C177.485 157.717 176.099 158.41 174.625 158.41C174.105 158.41 173.499 158.28 172.805 158.02Z" fill="#F4339D"/>
<path d="M218.53 113.82C217.316 113.3 216.71 112 216.71 109.92C216.71 107.927 217.23 105.153 218.27 101.6C218.443 100.907 219.396 98.3933 221.13 94.06C224.51 85.22 227.543 77.03 230.23 69.49C232.916 61.95 235.43 54.15 237.77 46.09C239.243 40.89 240.803 37.0767 242.45 34.65C244.096 32.1367 246.22 30.88 248.82 30.88C253.76 30.88 256.23 33.61 256.23 39.07C256.23 41.5833 255.71 44.53 254.67 47.91C253.023 53.37 250.423 60.4767 246.87 69.23C243.316 77.9833 239.763 86.26 236.21 94.06C232.656 101.773 230.23 106.67 228.93 108.75C226.503 112.563 224.033 114.47 221.52 114.47C220.653 114.47 219.656 114.253 218.53 113.82Z" fill="#F1AF09"/>
<path d="M283.322 114.73C278.468 114.73 273.918 113.603 269.672 111.35C265.425 109.01 262.002 105.717 259.402 101.47C256.888 97.2233 255.632 92.37 255.632 86.91C255.632 73.13 259.315 60.0867 266.682 47.78C274.135 35.3867 284.015 25.4633 296.322 18.01C308.715 10.47 321.975 6.69999 336.102 6.69999C341.995 6.69999 346.458 7.21999 349.492 8.26C352.612 9.21333 354.172 11.2067 354.172 14.24C354.172 16.7533 353.132 18.53 351.052 19.57C349.058 20.61 346.458 21.13 343.252 21.13C330.598 21.13 318.768 23.86 307.762 29.32C296.842 34.78 288.088 42.58 281.502 52.72C274.915 62.7733 271.622 74.4733 271.622 87.82C271.622 90.94 272.792 93.67 275.132 96.01C277.558 98.35 280.375 99.52 283.582 99.52C288.608 99.52 292.768 97.2233 296.062 92.63C299.355 88.0367 301.695 82.4033 303.082 75.73C303.688 72.87 304.815 70.7467 306.462 69.36C308.195 67.9733 309.928 67.28 311.662 67.28C314.088 67.28 315.952 68.2333 317.252 70.14C318.638 72.0467 319.332 74.4733 319.332 77.42C319.332 78.0267 319.245 79.11 319.072 80.67C318.465 84.57 316.645 89.2067 313.612 94.58C310.578 99.9533 306.462 104.677 301.262 108.75C296.062 112.737 290.082 114.73 283.322 114.73Z" fill="#7ACC6D"/>
<path d="M322.25 113.82C321.037 113.3 320.43 112 320.43 109.92C320.43 107.927 320.95 105.153 321.99 101.6C322.164 100.907 323.117 98.3933 324.85 94.06C328.23 85.22 331.264 77.03 333.95 69.49C336.637 61.95 339.15 54.15 341.49 46.09C342.964 40.89 344.524 37.0767 346.17 34.65C347.817 32.1367 349.94 30.88 352.54 30.88C357.48 30.88 359.95 33.61 359.95 39.07C359.95 41.5833 359.43 44.53 358.39 47.91C356.744 53.37 354.144 60.4767 350.59 69.23C347.037 77.9833 343.484 86.26 339.93 94.06C336.377 101.773 333.95 106.67 332.65 108.75C330.224 112.563 327.754 114.47 325.24 114.47C324.374 114.47 323.377 114.253 322.25 113.82Z" fill="#6FE7D2"/>
<path d="M430.592 45.44C430.939 46.48 431.112 47.2167 431.112 47.65C431.112 51.29 427.256 53.63 419.542 54.67C415.036 55.2767 409.922 56.5767 404.202 58.57C406.282 68.71 407.322 77.8533 407.322 86C407.322 106.28 400.779 118.803 387.692 123.57C385.006 124.523 382.146 125 379.112 125C374.259 125 369.796 123.7 365.722 121.1C361.736 118.587 358.789 114.73 356.882 109.53C355.149 104.937 354.282 100.213 354.282 95.36C354.282 86.26 357.186 77.6367 362.992 69.49C368.886 61.3433 376.556 54.67 386.002 49.47L385.222 47.39L381.452 37.9C379.632 33.6533 378.289 30.3167 377.422 27.89C376.556 25.3767 376.122 23.1233 376.122 21.13C376.122 17.9233 377.466 15.8433 380.152 14.89C380.412 14.8033 381.019 14.63 381.972 14.37C382.926 14.0233 383.836 13.85 384.702 13.85C388.602 13.85 391.722 17.0133 394.062 23.34C396.142 28.9733 398.309 35.6033 400.562 43.23C407.236 41.15 413.606 40.11 419.672 40.11C425.566 40.11 429.206 41.8867 430.592 45.44ZM381.322 111.22C382.709 110.7 384.269 109.313 386.002 107.06C387.736 104.72 389.209 101.47 390.422 97.31C391.722 93.15 392.372 88.2533 392.372 82.62C392.372 76.9 391.722 71.0933 390.422 65.2C383.922 69.1 378.722 73.6933 374.822 78.98C370.922 84.18 368.972 89.6833 368.972 95.49C368.972 98.4367 369.536 101.427 370.662 104.46C372.396 109.4 374.909 111.87 378.202 111.87C378.982 111.87 380.022 111.653 381.322 111.22Z" fill="#32BAED"/>
<path d="M448.837 119.28C441.47 119.28 435.36 117.287 430.507 113.3C425.74 109.4 423.357 103.03 423.357 94.19C423.357 89.0767 424.7 84.1367 427.387 79.37C430.074 74.5167 433.454 70.4867 437.527 67.28C441.6 64.0733 445.63 62.1233 449.617 61.43C450.917 61.17 452.174 61.04 453.387 61.04C458.154 61.04 462.227 62.47 465.607 65.33C469.074 68.19 470.807 71.8733 470.807 76.38C470.807 77.68 470.677 78.98 470.417 80.28C470.07 81.9267 468.9 84.0067 466.907 86.52C464.914 88.9467 462.574 91.07 459.887 92.89C457.287 94.71 454.904 95.62 452.737 95.62C451.264 95.62 449.964 95.1867 448.837 94.32C448.317 93.8 448.057 93.1933 448.057 92.5C448.057 91.5467 448.36 90.5067 448.967 89.38C449.66 88.1667 450.657 86.6067 451.957 84.7C453.257 82.7067 454.21 81.1467 454.817 80.02C455.424 78.8067 455.727 77.7667 455.727 76.9C455.727 75.4267 454.904 74.69 453.257 74.69C451.437 74.69 449.227 75.6 446.627 77.42C444.114 79.24 441.904 81.7533 439.997 84.96C438.177 88.08 437.267 91.59 437.267 95.49C437.267 98.35 438.264 100.603 440.257 102.25C442.337 103.81 445.197 104.59 448.837 104.59C453.43 104.59 458.934 102.857 465.347 99.39C471.76 95.8367 477.307 90.7667 481.987 84.18C486.667 77.5067 489.007 69.6633 489.007 60.65C489.007 54.67 487.75 50.0333 485.237 46.74C482.724 43.36 479.43 41.28 475.357 40.5C473.797 40.24 472.237 40.11 470.677 40.11C466.777 40.11 462.66 40.8467 458.327 42.32C454.08 43.7067 450.137 45.6133 446.497 48.04C443.81 49.9467 441.254 50.9 438.827 50.9C437.094 50.9 435.707 50.3367 434.667 49.21C433.8 48.3433 433.367 47.2167 433.367 45.83C433.367 44.1833 434.017 42.4067 435.317 40.5C436.704 38.5067 438.654 36.6 441.167 34.78C449.227 28.9733 460.017 26.07 473.537 26.07C480.037 26.07 485.54 27.76 490.047 31.14C494.64 34.4333 498.107 38.81 500.447 44.27C502.787 49.6433 503.957 55.4067 503.957 61.56C503.957 71.6133 501.184 81.1033 495.637 90.03C490.177 98.87 483.157 105.977 474.577 111.35C466.084 116.637 457.504 119.28 448.837 119.28Z" fill="#7A5BCE"/>
<path d="M89.0719 2.37947C89.4288 2.05191 89.9963 2.37231 89.9001 2.84703L89.0309 7.13941C88.73 8.62553 89.4202 10.1364 90.7406 10.8819L94.5543 13.0349C94.9761 13.2731 94.8468 13.9118 94.3656 13.9671L90.0147 14.4668C88.5083 14.6399 87.2846 15.7632 86.9837 17.2493L86.1145 21.5417C86.0184 22.0164 85.3709 22.0908 85.1697 21.6502L83.3499 17.6667C82.7198 16.2876 81.2733 15.4709 79.7669 15.644L75.416 16.1437C74.9348 16.199 74.664 15.6062 75.0209 15.2787L78.247 12.3169C79.364 11.2915 79.6937 9.66349 79.0636 8.2843L77.2438 4.30079C77.0426 3.86022 77.5227 3.4195 77.9444 3.65762L81.7581 5.8107C83.0785 6.55614 84.7288 6.36659 85.8458 5.34117L89.0719 2.37947Z" stroke="#2AACE3" strokeWidth="3"/>
</svg>
